<?xml version="1.0" encoding="UTF-8"?><svg id="Layer_2" xmlns="http://www.w3.org/2000/svg" viewBox="0 0 1799.2988 399.0643"><defs><style>.cls-1{fill:#e8ad4a;}.cls-2{fill:#1973cc;}.cls-3{fill:#2a87e5;}.cls-4{fill:#2f2f2d;}.cls-5{fill:#4b9ae9;}</style></defs><g id="FULL_LOGO"><g id="PARTS"><path class="cls-2" d="m379.9221,299.9709c-2.4557,1.1588-4.7095,1.3704-7.9529,1.6471-.7678.0655-1.8784.1443-3.2305.1818-2.436,7.8817-5.5951,16.5579-9.7272,25.7366-5.4407,12.0854-11.3856,22.4146-17.0187,30.9874-19.421,6.4003-50.3922,13.5276-85.9927,13.7256-35.6005-.198-66.5718-7.3253-85.9927-13.7256-5.6331-8.5728-11.578-18.902-17.0187-30.9874-4.1321-9.1788-7.2912-17.8549-9.7272-25.7366-1.3521-.0375-2.4626-.1163-3.2305-.1818-3.2435-.2767-5.4972-.4883-7.9529-1.6471-.825-.3892-1.4561-.7831-1.8353-1.0353,1.7726,12.7098,3.5451,25.4196,5.3177,38.1293,1.6923,9.66,6.2747,26.5213,20.1528,40.4117,22.7739,22.7939,64.3688,28.0223,100.2869,13.3647,35.918,14.6577,77.513,9.4293,100.2869-13.3647,13.8782-13.8904,18.4606-30.7517,20.1528-40.4117,1.7726-12.7098,3.5451-25.4196,5.3177-38.1293-.3793.2521-1.0104.6461-1.8353,1.0353Z"/><path class="cls-3" d="m313.6151,317.2321s-3.5436,6.8239-10.1882,6.3371c-6.6516-.4867-13.7388-16.088-27.0386-20.9651-13.2964-4.8771-20.3904,2.9234-20.3904,2.9234,0,0-7.0906-7.8007-20.3834-2.9234-13.2964,4.8771-20.3868,20.4784-27.035,20.9651-6.6482.4867-10.1952-6.3371-10.1952-6.3371,0,0-2.216,5.8504,3.9931,14.1379,6.2021,8.2873,23.4843,11.7719,34.5681,8.2873,12.4042-3.9003,19.0523-13.6475,19.0523-13.6475,0,0,6.2057,10.2374,19.0594,13.6475,11.2041,2.9768,28.3696,0,34.5717-8.2873,6.2021-8.2873,3.9861-14.1379,3.9861-14.1379Z"/><path class="cls-3" d="m120.9543,263.1167c-2.5635-.1449-5.2935-.3052-8.4417-1.0107,1.6746,6.0723,3.7118,10.8458,5.3076,14.1216,3.5173,7.2206,5.7029,11.7073,10.6483,14.7303,4.9251,3.0107,10.1404,3.0739,13.0187,2.8641-2.2014-10.4727-4.4029-20.9454-6.6043-31.4182-2.3931,1.3597-6.316,1.1429-13.9286.7127Z"/><path class="cls-3" d="m391.0457,263.1167c2.5635-.1449,5.2935-.3052,8.4417-1.0107-1.6746,6.0723-3.7118,10.8458-5.3076,14.1216-3.5173,7.2206-5.7029,11.7073-10.6483,14.7303-4.9251,3.0107-10.1404,3.0739-13.0187,2.8641,2.2014-10.4727,4.4029-20.9454,6.6043-31.4182,2.3931,1.3597,6.316,1.1429,13.9286.7127Z"/><path class="cls-5" d="m481,115c-19.8745-1.7174-40.1378-6.8325-92-31-16.0436-7.4762-37.2822-17.7874-62-31,1.9873,3.1919,4.8568,8.8261,5,16,.1122,5.6236-1.4305,13.195-10,24-18.7028,23.5817-59.3585,48.0452-66,52-6.6415-3.9548-47.2973-28.4183-66-52-8.5695-10.805-10.1122-18.3764-10-24,.1431-7.1739,3.0127-12.8081,5-16-24.7178,13.2126-45.9564,23.5238-62,31-51.8622,24.1675-72.1255,29.2826-92,31-13.1781,1.1388-24.0541.5996-31,0,39.5482,70.4995,73.4528,119.175,84.5679,127.9217,10.081,7.9329,20.6139,11.0473,20.614,11.0473,5.2212,1.5438,9.8553,2.0516,12.6489,2.2372,7.7639.5157,11.6459.7736,14.1647-.8471,7.5458-4.8552,1.4723-17.8651,12.047-31.9999,0,0,.9281-1.2406,2.4332-2.9219,19.1908-21.4373,109.5241-21.4373,109.5242-21.4373,0,0,90.3334,0,109.5242,21.4373,1.5051,1.6813,2.4332,2.9218,2.4332,2.9219,10.5673,14.1248,4.5959,27.2415,12.047,31.9999,2.4652,1.5743,6.365,1.3319,14.1647.8471,1.4996-.0932,6.2149-.4421,11.3524-1.7903,0,0,11.0834-2.9086,21.9105-11.4941,11.1904-8.8736,45.1319-57.4501,84.5679-127.9217-6.9459.5996-17.8219,1.1388-31,0Z"/><polygon class="cls-1" points="256 0 274 55 332 73 274 91 256 146 238 91 180 73 238 55 256 0"/></g><g id="TEXT"><path class="cls-4" d="m600,120.8325c0-6.2998.4199-10.9199,6.7197-13.4404l27.7207-9.6602c2.9395-1.2598,4.6191-1.6797,6.2998-1.6797,2.9395,0,3.7803,1.6797,3.7803,5.46v262.9189h-31.5c-10.5,0-13.0205-3.3604-13.0205-13.4404V120.8325Zm55.8604,117.1787c-2.5205-6.7197-2.5205-11.7598,0-18.4795l39.8994-114.6592c1.6797-5.8799,5.46-8.8203,11.7598-8.8203,4.6201,0,11.3398,2.9404,16.7998,5.46l18.4805,8.4004c-14.2803,32.3398-34.0205,85.6797-45.3604,117.5996,14.7002,39.0596,33.1807,90.2988,49.1396,123.0586l-21.4189,11.7607c-3.7803,2.0996-10.0801,5.04-15.54,5.04-7.9805,0-10.0801-4.2002-12.1807-10.0801l-41.5791-119.2803Z"/><path class="cls-4" d="m784.7979,357.2914c-17.2197-4.6201-22.2598-13.8604-22.2598-33.1797v-115.5c0-17.6396,2.1006-25.2002,10.5-35.2803,8.4004-10.499,20.1602-19.7393,33.5996-26.0391,5.04-2.5205,10.0801-3.7803,15.54-3.7803s9.2402.8398,14.2803,2.0996l26.8799,7.9805c17.2197,4.6201,22.2598,13.8594,22.2598,33.1797v115.499c0,17.6406-2.0996,25.2002-10.5,35.2803-8.3994,10.5-19.7393,19.7402-33.5996,26.04-5.04,2.5195-10.0801,3.7803-15.54,3.7803s-9.2402-.8408-14.2803-2.1006l-26.8799-7.9795Zm28.1406-36.96l7.9795,2.0996c6.7197,1.6807,11.3398,1.6807,15.54-1.6797,3.7803-2.5205,5.46-6.7197,5.46-13.0205v-104.999c0-7.1396-.8398-10.5-6.7197-12.1797l-7.9805-2.1006c-6.2998-1.6797-11.3398-1.6797-15.54,1.6807-3.3594,2.5195-5.46,6.7197-5.46,13.0195v105c0,7.1396.8408,10.499,6.7207,12.1797Z"/><path class="cls-4" d="m917.5146,71.6928h31.0791c9.6602,0,12.6006,2.9395,12.6006,12.5996v280.1387h-31.0801c-9.2402,0-12.5996-2.9404-12.5996-12.5996V71.6928Z"/><path class="cls-4" d="m993.1094,146.4516h31.0791c9.6602,0,12.6006,2.9404,12.6006,12.6006v149.5195c0,7.1396.8398,10.0791,6.7197,12.1797l7.9795,2.0996c6.3008,1.6807,11.3408,1.2607,15.1201-1.2598,2.9404-2.5195,5.04-6.7197,5.04-13.4395v-161.7002h30.6602c9.6602,0,12.5996,2.9404,12.5996,12.6006v138.5996c0,13.8594,0,19.7393,6.7197,27.2998l12.1807,14.6992-25.6201,22.6807c-4.2002,3.7793-6.7197,5.04-9.6602,5.04-3.3594,0-5.04-1.6807-7.9795-4.6201l-7.1406-8.4004c-2.5195-2.9395-5.04-3.3604-7.9795-.4199-.8398.4199-8.8203,8.4004-9.6602,8.8203-3.3604,2.9395-6.7197,4.6201-11.7598,4.6201-4.2002,0-7.5605-.8408-12.5996-2.1006l-25.6201-7.5596c-17.2197-4.6201-22.6797-13.8604-22.6797-33.1797v-178.0801Z"/><path class="cls-4" d="m1153.543,213.2319c0-13.8604-.4199-19.7402-6.7197-27.2998l-12.1797-14.7002,26.46-23.0996c3.7803-3.3604,5.8799-4.6201,8.8203-4.6201,3.3594,0,5.8799,2.5195,7.5596,4.6201l7.5596,8.3994c2.5205,2.9404,5.04,3.3604,7.9805.4199.4199-.4199,8.8193-8.3994,9.6602-8.8193,3.3594-2.9404,7.1396-4.6201,11.7598-4.6201,5.04,0,8.3994.8398,13.4395,2.0996l28.9805,8.4004c5.46,1.6797,8.8193,4.2002,11.7598,6.7197,3.3604-3.7803,8.8203-8.8203,13.0195-12.5996,3.7803-2.9404,7.1406-4.6201,12.1807-4.6201s7.9795.8398,13.4395,2.0996l28.9795,8.4004c14.7002,4.2002,18.9004,12.1797,18.9004,31.5v178.9189h-30.6602c-9.6602,0-12.5996-2.9404-12.5996-12.5996v-149.5195c0-7.1396-.8398-10.0801-6.7197-12.1797l-8.4004-2.1006c-6.2998-1.6797-11.3398-1.6797-15.96,2.1006-2.9395,2.5195-4.6201,6.7197-4.6201,13.0195v161.2793h-31.0801c-9.6592,0-12.5996-2.9404-12.5996-12.5996v-149.5195c0-7.1396-.8398-10.0801-6.7197-12.1797l-7.9805-2.1006c-6.7197-1.6797-11.7598-1.6797-15.96,2.1006-3.3594,2.5195-5.0391,6.7197-5.0391,13.0195v161.2793h-31.0801c-9.2402,0-12.1807-2.9404-12.1807-12.5996v-138.5996Z"/><path class="cls-4" d="m1387.4814,71.6928h31.0791c9.6602,0,12.6006,2.9395,12.6006,12.5996v68.46c.8398-.4199,4.6201-3.7803,5.46-4.6201,3.7793-2.9404,7.5596-4.6201,12.1797-4.6201,5.04,0,8.3994.8398,13.4395,2.0996l25.6201,7.5605c17.2197,4.6201,22.6797,13.8594,22.6797,33.1797v115.9189c0,17.6406-2.0996,25.2002-10.5,35.2803-8.3994,10.5-19.7393,19.7402-33.5996,26.04-5.04,2.5195-10.0801,3.7803-15.54,3.7803s-9.2393-.8408-14.2793-2.1006l-26.8799-7.9795c-17.2207-4.6201-22.2598-13.8604-22.2598-33.1797V71.6928Zm58.3789,250.7383c6.7207,1.6807,11.3398,1.6807,15.96-2.0996,3.3604-2.5205,5.04-6.2998,5.04-13.0205v-104.999c0-7.1396-.8398-10.0801-6.7197-12.1797l-7.9795-2.1006c-6.7207-1.6797-11.7607-1.6797-15.96,2.1006-3.3604,2.5195-5.04,6.7197-5.04,13.0195v105c0,7.1396.8398,10.499,6.7197,12.1797l7.9795,2.0996Z"/><path class="cls-4" d="m1542.46,146.4516h31.0791c9.6602,0,12.6006,2.9404,12.6006,12.6006v149.5195c0,7.1396.8398,10.0791,6.7197,12.1797l7.9795,2.0996c6.3008,1.6807,11.3398,1.2607,15.1201-1.2598,2.9404-2.5195,5.04-6.7197,5.04-13.4395v-161.7002h30.6602c9.6602,0,12.5996,2.9404,12.5996,12.6006v138.5996c0,13.8594,0,19.7393,6.7197,27.2998l12.1807,14.6992-25.6201,22.6807c-4.2002,3.7793-6.7197,5.04-9.6602,5.04-3.3594,0-5.04-1.6807-7.9795-4.6201l-7.1406-8.4004c-2.5195-2.9395-5.04-3.3604-7.9795-.4199-.8398.4199-8.8203,8.4004-9.6602,8.8203-3.3604,2.9395-6.7197,4.6201-11.7598,4.6201-4.2002,0-7.5605-.8408-12.5996-2.1006l-25.6201-7.5596c-17.2197-4.6201-22.6797-13.8604-22.6797-33.1797v-178.0801Z"/><path class="cls-4" d="m1683.1553,347.2114l16.3799-25.2002c2.9395-4.2002,7.1396-5.8799,13.8594-3.7803l15.54,4.2002c9.2402,2.5205,16.7998.8398,21.8398-4.6201,3.7803-3.7793,6.3008-9.6592,6.3008-16.3799,0-11.7598-8.8203-17.2197-24.7803-30.2393l-14.7002-12.6006c-18.0596-14.2793-28.5596-28.5596-28.5596-52.0791,0-21,13.0195-42.8398,42.8398-58.3799,5.8799-3.3604,11.3398-4.6201,16.3799-4.6201,4.6201,0,7.9795.4199,13.0195,2.0996l33.1797,9.2402c5.4609,1.6797,5.8809,5.04,3.3604,8.8203l-16.3799,24.7793c-2.5195,4.6201-7.5596,5.8799-14.7002,3.7803l-12.5996-3.7803c-7.1396-1.6797-13.0195-.8398-16.3799,2.1006-4.6201,2.9395-6.7197,8.3994-6.7197,13.4395,0,8.8203,5.46,14.2803,17.2197,23.9404l19.3203,15.5391c19.7393,15.54,30.6592,31.5,30.6592,55.4404,0,30.2393-22.6797,51.6592-49.1396,65.0996-5.8799,2.9395-10.0801,3.3604-15.54,3.3604-4.6201,0-8.8193-.8408-13.8594-2.1006l-34.0205-9.6602c-4.6201-1.2598-5.04-5.04-2.5195-8.3994Z"/></g></g></svg>