<?xml version="1.0" encoding="UTF-8"?><svg id="Layer_2" xmlns="http://www.w3.org/2000/svg" viewBox="0 0 1799.2988 399.0643"><defs><style>.cls-1{fill:#006bad;}.cls-2{fill:#3c3c39;}</style></defs><g id="FULL_LOGO"><path id="ICON" class="cls-1" d="m381.7574,298.9356c-1.7726,12.7098-3.5451,25.4196-5.3177,38.1293-1.6923,9.66-6.2747,26.5213-20.1528,40.4117-22.7739,22.7939-64.3688,28.0223-100.2869,13.3647-35.918,14.6577-77.513,9.4293-100.2869-13.3647-13.8782-13.8904-18.4606-30.7517-20.1528-40.4117-1.7726-12.7098-3.5451-25.4196-5.3177-38.1293.3793.2521,1.0104.6461,1.8353,1.0353,2.4557,1.1588,4.7095,1.3704,7.9529,1.6471.7678.0655,1.8784.1443,3.2305.1818,2.436,7.8817,5.5951,16.5579,9.7272,25.7366,5.4407,12.0854,11.3856,22.4146,17.0187,30.9874,19.421,6.4003,50.3922,13.5276,85.9927,13.7256,35.6005-.198,66.5718-7.3253,85.9927-13.7256,5.6331-8.5728,11.578-18.902,17.0187-30.9874,4.1321-9.1788,7.2912-17.8549,9.7272-25.7366,1.3521-.0375,2.4626-.1163,3.2305-.1818,3.2435-.2767,5.4972-.4883,7.9529-1.6471.825-.3892,1.4561-.7831,1.8353-1.0353Zm-260.803-35.8189c-2.5635-.1449-5.2935-.3052-8.4417-1.0107,1.6746,6.0723,3.7118,10.8458,5.3076,14.1216,3.5173,7.2206,5.7029,11.7073,10.6483,14.7303,4.9251,3.0107,10.1404,3.0739,13.0187,2.8641-2.2014-10.4727-4.4029-20.9454-6.6043-31.4182-2.3931,1.3597-6.316,1.1429-13.9286.7127Zm256.1627-.7127c-2.2014,10.4727-4.4029,20.9454-6.6043,31.4182,2.8783.2098,8.0936.1466,13.0187-2.8641,4.9454-3.0231,7.131-7.5098,10.6483-14.7303,1.5958-3.2758,3.6329-8.0493,5.3076-14.1216-3.1482.7054-5.8781.8658-8.4417,1.0107-7.6127.4302-11.5355.647-13.9286-.7127Zm134.883-147.404c-39.436,70.4716-73.3776,119.0482-84.5679,127.9217-10.8271,8.5855-21.9103,11.4941-21.9105,11.4941-5.1375,1.3483-9.8528,1.6971-11.3524,1.7903-7.7997.4848-11.6995.7272-14.1647-.8471-7.451-4.7584-1.4797-17.8751-12.047-31.9999,0,0-.9281-1.2405-2.4332-2.9219-19.1908-21.4373-109.5241-21.4373-109.5242-21.4373s-90.3334,0-109.5242,21.4373c-1.5051,1.6813-2.4332,2.9218-2.4332,2.9219-10.5747,14.1349-4.5012,27.1448-12.047,31.9999-2.5189,1.6207-6.4008,1.3629-14.1647.8471-2.7936-.1855-7.4277-.6933-12.6489-2.2371-.0001,0-10.533-3.1144-20.614-11.0474-11.1152-8.7467-45.0197-57.4222-84.5679-127.9217,6.9459.5995,17.822,1.1387,31,0,19.8746-1.7174,40.1378-6.8325,92-31,16.0436-7.4762,37.2822-17.7874,62-31-1.9873,3.1919-4.8569,8.8261-5,16-.0242,1.2134.0368,2.5239.2206,3.9315l57.7794-17.9315L256,0l18,55,57.7794,17.9315c.1838-1.4077.2449-2.7181.2206-3.9315-.1431-7.1739-3.0127-12.8081-5-16,24.7178,13.2126,45.9564,23.5238,62,31,51.8622,24.1675,72.1255,29.2826,92,31,13.1781,1.1387,24.0541.5995,31,0Zm-256.4067,29.7572l-17.5933-53.7572-57.7603-17.9256c.694,5.0941,3.1022,11.5306,9.7603,19.9256,18.3729,23.1657,57.9072,47.1679,65.5933,51.7572Zm66.4067-51.7572c6.6581-8.395,9.0663-14.8315,9.7603-19.9256l-57.7603,17.9256-17.5933,53.7572c7.6861-4.5893,47.2204-28.5915,65.5933-51.7572Zm-12.371,238.37c-6.2021,8.2873-23.3676,11.2641-34.5717,8.2873-12.8537-3.4101-19.0594-13.6475-19.0594-13.6475,0,0-6.6482,9.7472-19.0523,13.6475-11.0838,3.4847-28.366,0-34.5681-8.2873-6.2091-8.2875-3.9931-14.1379-3.9931-14.1379,0,0,3.547,6.8239,10.1952,6.3371,6.6482-.4867,13.7386-16.088,27.035-20.9651,13.2927-4.8774,20.3834,2.9234,20.3834,2.9234,0,0,7.094-7.8005,20.3904-2.9234,13.2998,4.8771,20.387,20.4784,27.0386,20.9651,6.6446.4867,10.1882-6.3371,10.1882-6.3371,0,0,2.216,5.8506-3.9861,14.1379Z"/><path class="cls-2" d="m600,120.8325c0-6.2998.4199-10.9199,6.7197-13.4404l27.7207-9.6602c2.9395-1.2598,4.6191-1.6797,6.2998-1.6797,2.9395,0,3.7803,1.6797,3.7803,5.46v262.9189h-31.5c-10.5,0-13.0205-3.3604-13.0205-13.4404V120.8325Zm55.8604,117.1787c-2.5205-6.7197-2.5205-11.7598,0-18.4795l39.8994-114.6592c1.6797-5.8799,5.46-8.8203,11.7598-8.8203,4.6201,0,11.3398,2.9404,16.7998,5.46l18.4805,8.4004c-14.2803,32.3398-34.0205,85.6797-45.3604,117.5996,14.7002,39.0596,33.1807,90.2988,49.1396,123.0586l-21.4189,11.7607c-3.7803,2.0996-10.0801,5.04-15.54,5.04-7.9805,0-10.0801-4.2002-12.1807-10.0801l-41.5791-119.2803Z"/><path class="cls-2" d="m784.7979,357.2914c-17.2197-4.6201-22.2598-13.8604-22.2598-33.1797v-115.5c0-17.6396,2.1006-25.2002,10.5-35.2803,8.4004-10.499,20.1602-19.7393,33.5996-26.0391,5.04-2.5205,10.0801-3.7803,15.54-3.7803s9.2402.8398,14.2803,2.0996l26.8799,7.9805c17.2197,4.6201,22.2598,13.8594,22.2598,33.1797v115.499c0,17.6406-2.0996,25.2002-10.5,35.2803-8.3994,10.5-19.7393,19.7402-33.5996,26.04-5.04,2.5195-10.0801,3.7803-15.54,3.7803s-9.2402-.8408-14.2803-2.1006l-26.8799-7.9795Zm28.1406-36.96l7.9795,2.0996c6.7197,1.6807,11.3398,1.6807,15.54-1.6797,3.7803-2.5205,5.46-6.7197,5.46-13.0205v-104.999c0-7.1396-.8398-10.5-6.7197-12.1797l-7.9805-2.1006c-6.2998-1.6797-11.3398-1.6797-15.54,1.6807-3.3594,2.5195-5.46,6.7197-5.46,13.0195v105c0,7.1396.8408,10.499,6.7207,12.1797Z"/><path class="cls-2" d="m917.5146,71.6928h31.0791c9.6602,0,12.6006,2.9395,12.6006,12.5996v280.1387h-31.0801c-9.2402,0-12.5996-2.9404-12.5996-12.5996V71.6928Z"/><path class="cls-2" d="m993.1094,146.4516h31.0791c9.6602,0,12.6006,2.9404,12.6006,12.6006v149.5195c0,7.1396.8398,10.0791,6.7197,12.1797l7.9795,2.0996c6.3008,1.6807,11.3408,1.2607,15.1201-1.2598,2.9404-2.5195,5.04-6.7197,5.04-13.4395v-161.7002h30.6602c9.6602,0,12.5996,2.9404,12.5996,12.6006v138.5996c0,13.8594,0,19.7393,6.7197,27.2998l12.1807,14.6992-25.6201,22.6807c-4.2002,3.7793-6.7197,5.04-9.6602,5.04-3.3594,0-5.04-1.6807-7.9795-4.6201l-7.1406-8.4004c-2.5195-2.9395-5.04-3.3604-7.9795-.4199-.8398.4199-8.8203,8.4004-9.6602,8.8203-3.3604,2.9395-6.7197,4.6201-11.7598,4.6201-4.2002,0-7.5605-.8408-12.5996-2.1006l-25.6201-7.5596c-17.2197-4.6201-22.6797-13.8604-22.6797-33.1797v-178.0801Z"/><path class="cls-2" d="m1153.543,213.2319c0-13.8604-.4199-19.7402-6.7197-27.2998l-12.1797-14.7002,26.46-23.0996c3.7803-3.3604,5.8799-4.6201,8.8203-4.6201,3.3594,0,5.8799,2.5195,7.5596,4.6201l7.5596,8.3994c2.5205,2.9404,5.04,3.3604,7.9805.4199.4199-.4199,8.8193-8.3994,9.6602-8.8193,3.3594-2.9404,7.1396-4.6201,11.7598-4.6201,5.04,0,8.3994.8398,13.4395,2.0996l28.9805,8.4004c5.46,1.6797,8.8193,4.2002,11.7598,6.7197,3.3604-3.7803,8.8203-8.8203,13.0195-12.5996,3.7803-2.9404,7.1406-4.6201,12.1807-4.6201s7.9795.8398,13.4395,2.0996l28.9795,8.4004c14.7002,4.2002,18.9004,12.1797,18.9004,31.5v178.9189h-30.6602c-9.6602,0-12.5996-2.9404-12.5996-12.5996v-149.5195c0-7.1396-.8398-10.0801-6.7197-12.1797l-8.4004-2.1006c-6.2998-1.6797-11.3398-1.6797-15.96,2.1006-2.9395,2.5195-4.6201,6.7197-4.6201,13.0195v161.2793h-31.0801c-9.6592,0-12.5996-2.9404-12.5996-12.5996v-149.5195c0-7.1396-.8398-10.0801-6.7197-12.1797l-7.9805-2.1006c-6.7197-1.6797-11.7598-1.6797-15.96,2.1006-3.3594,2.5195-5.0391,6.7197-5.0391,13.0195v161.2793h-31.0801c-9.2402,0-12.1807-2.9404-12.1807-12.5996v-138.5996Z"/><path class="cls-2" d="m1387.4814,71.6928h31.0791c9.6602,0,12.6006,2.9395,12.6006,12.5996v68.46c.8398-.4199,4.6201-3.7803,5.46-4.6201,3.7793-2.9404,7.5596-4.6201,12.1797-4.6201,5.04,0,8.3994.8398,13.4395,2.0996l25.6201,7.5605c17.2197,4.6201,22.6797,13.8594,22.6797,33.1797v115.9189c0,17.6406-2.0996,25.2002-10.5,35.2803-8.3994,10.5-19.7393,19.7402-33.5996,26.04-5.04,2.5195-10.0801,3.7803-15.54,3.7803s-9.2393-.8408-14.2793-2.1006l-26.8799-7.9795c-17.2207-4.6201-22.2598-13.8604-22.2598-33.1797V71.6928Zm58.3789,250.7383c6.7207,1.6807,11.3398,1.6807,15.96-2.0996,3.3604-2.5205,5.04-6.2998,5.04-13.0205v-104.999c0-7.1396-.8398-10.0801-6.7197-12.1797l-7.9795-2.1006c-6.7207-1.6797-11.7607-1.6797-15.96,2.1006-3.3604,2.5195-5.04,6.7197-5.04,13.0195v105c0,7.1396.8398,10.499,6.7197,12.1797l7.9795,2.0996Z"/><path class="cls-2" d="m1542.46,146.4516h31.0791c9.6602,0,12.6006,2.9404,12.6006,12.6006v149.5195c0,7.1396.8398,10.0791,6.7197,12.1797l7.9795,2.0996c6.3008,1.6807,11.3398,1.2607,15.1201-1.2598,2.9404-2.5195,5.04-6.7197,5.04-13.4395v-161.7002h30.6602c9.6602,0,12.5996,2.9404,12.5996,12.6006v138.5996c0,13.8594,0,19.7393,6.7197,27.2998l12.1807,14.6992-25.6201,22.6807c-4.2002,3.7793-6.7197,5.04-9.6602,5.04-3.3594,0-5.04-1.6807-7.9795-4.6201l-7.1406-8.4004c-2.5195-2.9395-5.04-3.3604-7.9795-.4199-.8398.4199-8.8203,8.4004-9.6602,8.8203-3.3604,2.9395-6.7197,4.6201-11.7598,4.6201-4.2002,0-7.5605-.8408-12.5996-2.1006l-25.6201-7.5596c-17.2197-4.6201-22.6797-13.8604-22.6797-33.1797v-178.0801Z"/><path class="cls-2" d="m1683.1553,347.2114l16.3799-25.2002c2.9395-4.2002,7.1396-5.8799,13.8594-3.7803l15.54,4.2002c9.2402,2.5205,16.7998.8398,21.8398-4.6201,3.7803-3.7793,6.3008-9.6592,6.3008-16.3799,0-11.7598-8.8203-17.2197-24.7803-30.2393l-14.7002-12.6006c-18.0596-14.2793-28.5596-28.5596-28.5596-52.0791,0-21,13.0195-42.8398,42.8398-58.3799,5.8799-3.3604,11.3398-4.6201,16.3799-4.6201,4.6201,0,7.9795.4199,13.0195,2.0996l33.1797,9.2402c5.4609,1.6797,5.8809,5.04,3.3604,8.8203l-16.3799,24.7793c-2.5195,4.6201-7.5596,5.8799-14.7002,3.7803l-12.5996-3.7803c-7.1396-1.6797-13.0195-.8398-16.3799,2.1006-4.6201,2.9395-6.7197,8.3994-6.7197,13.4395,0,8.8203,5.46,14.2803,17.2197,23.9404l19.3203,15.5391c19.7393,15.54,30.6592,31.5,30.6592,55.4404,0,30.2393-22.6797,51.6592-49.1396,65.0996-5.8799,2.9395-10.0801,3.3604-15.54,3.3604-4.6201,0-8.8193-.8408-13.8594-2.1006l-34.0205-9.6602c-4.6201-1.2598-5.04-5.04-2.5195-8.3994Z"/></g></svg>