<?xml version="1.0" encoding="UTF-8"?><svg id="Layer_2" xmlns="http://www.w3.org/2000/svg" viewBox="0 0 512 399.0643"><g id="ICON"><path id="ICON-2" d="m381.7574,298.9356c-1.7726,12.7098-3.5451,25.4196-5.3177,38.1293-1.6923,9.66-6.2747,26.5213-20.1528,40.4117-22.7739,22.7939-64.3688,28.0223-100.2869,13.3647-35.918,14.6577-77.513,9.4293-100.2869-13.3647-13.8782-13.8904-18.4606-30.7517-20.1528-40.4117-1.7726-12.7098-3.5451-25.4196-5.3177-38.1293.3793.2521,1.0104.6461,1.8353,1.0353,2.4557,1.1588,4.7095,1.3704,7.9529,1.6471.7678.0655,1.8784.1443,3.2305.1818,2.436,7.8817,5.5951,16.5579,9.7272,25.7366,5.4407,12.0854,11.3856,22.4146,17.0187,30.9874,19.421,6.4003,50.3922,13.5276,85.9927,13.7256,35.6005-.198,66.5718-7.3253,85.9927-13.7256,5.6331-8.5728,11.578-18.902,17.0187-30.9874,4.1321-9.1788,7.2912-17.8549,9.7272-25.7366,1.3521-.0375,2.4626-.1163,3.2305-.1818,3.2435-.2767,5.4972-.4883,7.9529-1.6471.825-.3892,1.4561-.7831,1.8353-1.0353Zm-260.803-35.8189c-2.5635-.1449-5.2935-.3052-8.4417-1.0107,1.6746,6.0723,3.7118,10.8458,5.3076,14.1216,3.5173,7.2206,5.7029,11.7073,10.6483,14.7303,4.9251,3.0107,10.1404,3.0739,13.0187,2.8641-2.2014-10.4727-4.4029-20.9454-6.6043-31.4182-2.3931,1.3597-6.316,1.1429-13.9286.7127Zm256.1627-.7127c-2.2014,10.4727-4.4029,20.9454-6.6043,31.4182,2.8783.2098,8.0936.1466,13.0187-2.8641,4.9454-3.0231,7.131-7.5098,10.6483-14.7303,1.5958-3.2758,3.6329-8.0493,5.3076-14.1216-3.1482.7054-5.8781.8658-8.4417,1.0107-7.6127.4302-11.5355.647-13.9286-.7127Zm134.883-147.404c-39.436,70.4716-73.3776,119.0482-84.5679,127.9217-10.8271,8.5855-21.9103,11.4941-21.9105,11.4941-5.1375,1.3483-9.8528,1.6971-11.3524,1.7903-7.7997.4848-11.6995.7272-14.1647-.8471-7.451-4.7584-1.4797-17.8751-12.047-31.9999,0,0-.9281-1.2405-2.4332-2.9219-19.1908-21.4373-109.5241-21.4373-109.5242-21.4373s-90.3334,0-109.5242,21.4373c-1.5051,1.6813-2.4332,2.9218-2.4332,2.9219-10.5747,14.1349-4.5012,27.1448-12.047,31.9999-2.5189,1.6207-6.4008,1.3629-14.1647.8471-2.7936-.1855-7.4277-.6933-12.6489-2.2371-.0001,0-10.533-3.1144-20.614-11.0474-11.1152-8.7467-45.0197-57.4222-84.5679-127.9217,6.9459.5995,17.822,1.1387,31,0,19.8746-1.7174,40.1378-6.8325,92-31,16.0436-7.4762,37.2822-17.7874,62-31-1.9873,3.1919-4.8569,8.8261-5,16-.0242,1.2134.0368,2.5239.2206,3.9315l57.7794-17.9315L256,0l18,55,57.7794,17.9315c.1838-1.4077.2449-2.7181.2206-3.9315-.1431-7.1739-3.0127-12.8081-5-16,24.7178,13.2126,45.9564,23.5238,62,31,51.8622,24.1675,72.1255,29.2826,92,31,13.1781,1.1387,24.0541.5995,31,0Zm-256.4067,29.7572l-17.5933-53.7572-57.7603-17.9256c.694,5.0941,3.1022,11.5306,9.7603,19.9256,18.3729,23.1657,57.9072,47.1679,65.5933,51.7572Zm66.4067-51.7572c6.6581-8.395,9.0663-14.8315,9.7603-19.9256l-57.7603,17.9256-17.5933,53.7572c7.6861-4.5893,47.2204-28.5915,65.5933-51.7572Zm-12.371,238.37c-6.2021,8.2873-23.3676,11.2641-34.5717,8.2873-12.8537-3.4101-19.0594-13.6475-19.0594-13.6475,0,0-6.6482,9.7472-19.0523,13.6475-11.0838,3.4847-28.366,0-34.5681-8.2873-6.2091-8.2875-3.9931-14.1379-3.9931-14.1379,0,0,3.547,6.8239,10.1952,6.3371,6.6482-.4867,13.7386-16.088,27.035-20.9651,13.2927-4.8774,20.3834,2.9234,20.3834,2.9234,0,0,7.094-7.8005,20.3904-2.9234,13.2998,4.8771,20.387,20.4784,27.0386,20.9651,6.6446.4867,10.1882-6.3371,10.1882-6.3371,0,0,2.216,5.8506-3.9861,14.1379Z"/></g></svg>