<?xml version="1.0" encoding="UTF-8"?><svg id="Layer_2" xmlns="http://www.w3.org/2000/svg" viewBox="0 0 512 399.0643"><defs><style>.cls-1{fill:#e8ad4a;}.cls-2{fill:#1973cc;}.cls-3{fill:#2a87e5;}.cls-4{fill:#4b9ae9;}</style></defs><g id="ICON"><g id="ICON-2"><path class="cls-2" d="m379.9221,299.9709c-2.4557,1.1588-4.7095,1.3704-7.9529,1.6471-.7678.0655-1.8784.1443-3.2305.1818-2.436,7.8817-5.5951,16.5579-9.7272,25.7366-5.4407,12.0854-11.3856,22.4146-17.0187,30.9874-19.421,6.4003-50.3922,13.5276-85.9927,13.7256-35.6005-.198-66.5718-7.3253-85.9927-13.7256-5.6331-8.5728-11.578-18.902-17.0187-30.9874-4.1321-9.1788-7.2912-17.8549-9.7272-25.7366-1.3521-.0375-2.4626-.1163-3.2305-.1818-3.2435-.2767-5.4972-.4883-7.9529-1.6471-.825-.3892-1.4561-.7831-1.8353-1.0353,1.7726,12.7098,3.5451,25.4196,5.3177,38.1293,1.6923,9.66,6.2747,26.5213,20.1528,40.4117,22.7739,22.7939,64.3688,28.0223,100.2869,13.3647,35.918,14.6577,77.513,9.4293,100.2869-13.3647,13.8782-13.8904,18.4606-30.7517,20.1528-40.4117,1.7726-12.7098,3.5451-25.4196,5.3177-38.1293-.3793.2521-1.0104.6461-1.8353,1.0353Z"/><path class="cls-3" d="m313.6151,317.2321s-3.5436,6.8239-10.1882,6.3371c-6.6516-.4867-13.7388-16.088-27.0386-20.9651-13.2964-4.8771-20.3904,2.9234-20.3904,2.9234,0,0-7.0906-7.8007-20.3834-2.9234-13.2964,4.8771-20.3868,20.4784-27.035,20.9651-6.6482.4867-10.1952-6.3371-10.1952-6.3371,0,0-2.216,5.8504,3.9931,14.1379,6.2021,8.2873,23.4843,11.7719,34.5681,8.2873,12.4042-3.9003,19.0523-13.6475,19.0523-13.6475,0,0,6.2057,10.2374,19.0594,13.6475,11.2041,2.9768,28.3696,0,34.5717-8.2873,6.2021-8.2873,3.9861-14.1379,3.9861-14.1379Z"/><path class="cls-3" d="m120.9543,263.1167c-2.5635-.1449-5.2935-.3052-8.4417-1.0107,1.6746,6.0723,3.7118,10.8458,5.3076,14.1216,3.5173,7.2206,5.7029,11.7073,10.6483,14.7303,4.9251,3.0107,10.1404,3.0739,13.0187,2.8641-2.2014-10.4727-4.4029-20.9454-6.6043-31.4182-2.3931,1.3597-6.316,1.1429-13.9286.7127Z"/><path class="cls-3" d="m391.0457,263.1167c2.5635-.1449,5.2935-.3052,8.4417-1.0107-1.6746,6.0723-3.7118,10.8458-5.3076,14.1216-3.5173,7.2206-5.7029,11.7073-10.6483,14.7303-4.9251,3.0107-10.1404,3.0739-13.0187,2.8641,2.2014-10.4727,4.4029-20.9454,6.6043-31.4182,2.3931,1.3597,6.316,1.1429,13.9286.7127Z"/><path class="cls-4" d="m481,115c-19.8745-1.7174-40.1378-6.8325-92-31-16.0436-7.4762-37.2822-17.7874-62-31,1.9873,3.1919,4.8568,8.8261,5,16,.1122,5.6236-1.4305,13.195-10,24-18.7028,23.5817-59.3585,48.0452-66,52-6.6415-3.9548-47.2973-28.4183-66-52-8.5695-10.805-10.1122-18.3764-10-24,.1431-7.1739,3.0127-12.8081,5-16-24.7178,13.2126-45.9564,23.5238-62,31-51.8622,24.1675-72.1255,29.2826-92,31-13.1781,1.1388-24.0541.5996-31,0,39.5482,70.4995,73.4528,119.175,84.5679,127.9217,10.081,7.9329,20.6139,11.0473,20.614,11.0473,5.2212,1.5438,9.8553,2.0516,12.6489,2.2372,7.7639.5157,11.6459.7736,14.1647-.8471,7.5458-4.8552,1.4723-17.8651,12.047-31.9999,0,0,.9281-1.2406,2.4332-2.9219,19.1908-21.4373,109.5241-21.4373,109.5242-21.4373,0,0,90.3334,0,109.5242,21.4373,1.5051,1.6813,2.4332,2.9218,2.4332,2.9219,10.5673,14.1248,4.5959,27.2415,12.047,31.9999,2.4652,1.5743,6.365,1.3319,14.1647.8471,1.4996-.0932,6.2149-.4421,11.3524-1.7903,0,0,11.0834-2.9086,21.9105-11.4941,11.1904-8.8736,45.1319-57.4501,84.5679-127.9217-6.9459.5996-17.8219,1.1388-31,0Z"/><polygon class="cls-1" points="256 0 274 55 332 73 274 91 256 146 238 91 180 73 238 55 256 0"/></g></g></svg>