<?xml version="1.0" encoding="UTF-8"?><svg id="Layer_2" xmlns="http://www.w3.org/2000/svg" viewBox="0 0 512 536"><defs><style>.cls-1{fill:#e8ad4a;}.cls-2{fill:#1973cc;}.cls-3{fill:#2a87e5;}.cls-4{fill:#2f2f2d;}.cls-5{fill:#4b9ae9;}</style></defs><g id="LOGO"><g id="TEXT"><path class="cls-4" d="m0,451.2503c0-2.493.2932-4.2521,2.639-5.132l11.7302-4.2521c1.1731-.4396,1.7595-.5864,2.3458-.5864,1.1731,0,1.613.5864,1.613,2.0526v91.6407H5.1316c-4.1053,0-5.1316-1.3195-5.1316-5.132v-78.591Zm21.847,40.1751c-.8796-2.639-.8796-4.5449,0-7.1846l12.0234-39.5887c.5864-2.1994,2.0526-3.3721,4.5452-3.3721,1.9062,0,4.692,1.1727,7.0382,2.1994l7.4778,3.5189c-4.9852,12.023-10.7035,29.6183-13.9293,40.3218,4.8384,14.0764,10.1172,31.0846,15.2488,41.7881l-8.7973,4.8384c-1.613.8799-4.2524,2.0534-6.4515,2.0534-3.2261,0-4.1056-1.7598-4.8388-3.9592l-12.3166-40.6154Z"/><path class="cls-4" d="m76.8323,531.7472c-8.5041-2.4922-9.9704-5.7183-9.9704-15.3952v-49.413c0-7.3314,1.0263-10.2639,3.6657-13.4893,4.1053-4.8384,9.384-8.6509,14.6624-10.9971,1.9062-.8799,3.3725-1.1727,4.9852-1.1727s3.2257.2928,4.8388.7331l12.1698,3.5189c8.5045,2.4922,9.9707,5.7183,9.9707,15.3959v49.4123c0,7.3314-1.0267,10.2639-3.6657,13.4893-4.1056,4.8391-9.384,8.6509-14.6627,10.9971-1.9059.8799-3.3721,1.1734-4.9852,1.1734s-3.2257-.2935-4.8384-.7331l-12.1702-3.5196Zm21.9938-63.6348c0-3.6657-.5864-4.9852-3.8121-5.8651l-3.0793-.8799c-1.9059-.5864-3.5189-.4396-4.692.4396-1.3195,1.0267-2.0526,2.7865-2.0526,5.2787v42.0817c0,3.6657.5864,4.9852,3.8125,5.8651l3.079.8792c1.9062.5871,3.5189.4403,4.692-.4396,1.3195-1.0267,2.0526-2.7858,2.0526-5.2787v-42.0809Z"/><path class="cls-4" d="m134.7494,451.2503c0-2.493.2932-4.2521,2.639-5.132l11.7302-4.2521c1.1731-.4396,1.7595-.5864,2.3458-.5864,1.1731,0,1.613.5864,1.613,2.0526v67.0076c0,3.8125,1.0263,4.8384,5.132,4.8384h18.1813c3.2257,0,3.6657,1.3202,3.2257,3.8125l-3.2257,15.9823h-31.231c-7.3314,0-10.4103-3.8125-10.4103-10.8503v-72.8727Z"/><path class="cls-4" d="m191.641,451.2503c0-2.493.2932-4.2521,2.639-5.132l11.7302-4.2521c1.1731-.4396,1.7595-.5864,2.3458-.5864,1.1731,0,1.613.5864,1.613,2.0526v66.8608c0,3.6657.5864,4.9852,3.8121,5.8651l3.0793.8799c1.9059.5864,3.5189.4396,4.692-.4396,1.3195-1.0267,2.0526-2.7865,2.0526-5.2787v-59.9698c0-2.493.2932-4.2521,2.6394-5.132l11.7298-4.2521c1.1731-.4396,1.7595-.5864,2.3462-.5864,1.1731,0,1.6127.5864,1.6127,2.0526v64.6614c0,6.5982,1.0263,9.384,3.6657,12.6101l3.0793,3.6657-12.0234,10.41c-1.4663,1.1734-2.1994,1.3202-2.9325,1.3202-.8799,0-1.4663-.2935-2.6394-1.613l-3.3721-3.9592c-.8799-1.1727-2.053-1.3195-3.3725-.1468-2.0526,1.7598-3.3725,2.9325-5.2784,4.3988-1.4663,1.0267-2.7861,1.3202-4.3988,1.3202-1.7595,0-3.8125-.4403-6.0119-1.0267l-7.0378-2.0526c-8.5041-2.493-9.9704-5.7183-9.9704-15.3959v-66.2745Z"/><path class="cls-4" d="m259.822,452.1302c0-3.5189.7331-6.1586,4.2521-7.4781l7.6242-2.7858c1.1734-.4396,1.9066-.5864,2.3462-.5864,1.0267,0,1.613.5864,2.1994,1.7591l10.9971,21.5545,9.5308-18.3284c2.1994-4.2521,3.5189-4.9852,5.132-4.9852,1.1727,0,2.1987.2928,3.8117.8799l5.7183,2.0526c2.3462.8799,2.7858,2.9325,2.7858,5.278v85.4828h-10.7035c-4.1053,0-5.132-1.3195-5.132-5.132v-42.668c0-5.132.1468-10.41.2935-14.8088-1.7598,3.6657-3.5189,6.7443-5.132,9.9704l-4.2521,7.9177c-1.1727,2.1994-3.6657,2.1994-4.8384,0l-4.6924-8.3573c-1.613-2.7865-3.3721-6.5982-4.9852-9.5308.1468,4.9852.1468,10.5567.1468,14.8088v47.8h-9.9704c-4.106,0-5.132-1.3195-5.132-5.132v-77.7111Z"/><path class="cls-4" d="m331.3753,466.2059c0-7.3314,1.0267-10.2639,3.6657-13.4893,4.106-4.8384,8.6509-7.9177,13.9296-10.2639,1.9059-.8799,3.3721-1.1727,4.9852-1.1727s3.2261.2928,4.8384.7331l12.1705,3.5189c8.5041,2.4922,8.7969,4.8384,8.7969,14.516v5.4248c0,7.0385-1.3195,10.9971-8.2106,15.2491,8.0645,2.0526,10.7035,6.3047,10.7035,14.3692v15.2491c0,7.3314-1.3195,10.2639-3.9592,13.4893-4.1053,4.8391-9.384,8.6509-14.662,10.9971-1.9066.8799-3.3729,1.1734-4.9852,1.1734s-3.2261-.2935-4.8391-.7331l-12.4626-3.5196c-8.5048-2.3455-9.9711-5.7183-9.9711-15.3952v-50.1462Zm23.3136,13.3432h2.1994c3.5189,0,4.6924-1.4663,4.6924-5.5723v-6.5975c0-3.3729-.4403-4.3988-3.3729-5.2787l-2.639-.7331c-2.1994-.5864-3.8125-.2935-4.8384.7331-.7331.8799-1.1734,2.3462-1.1734,4.2521v8.3573c0,3.8125,1.0267,4.8391,5.132,4.8391Zm-1.1727,35.4834l3.3721.8792c2.1994.5871,4.2521.2935,5.4255-1.026,1.1727-.8799,1.7591-2.493,1.7591-4.6924v-6.4515c0-4.2521-1.026-5.4248-5.4248-5.4248h-9.0912v10.8503c0,3.6657.7331,4.9852,3.9592,5.8651Z"/><path class="cls-4" d="m398.6771,451.2503c0-2.493.2928-4.2521,2.639-5.132l11.7302-4.2521c1.1727-.4396,1.7591-.5864,2.3462-.5864,1.1727,0,1.6123.5864,1.6123,2.0526v66.8608c0,3.6657.5871,4.9852,3.8125,5.8651l3.0793.8799c1.9059.5864,3.5189.4396,4.6917-.4396,1.3202-1.0267,2.0534-2.7865,2.0534-5.2787v-59.9698c0-2.493.2928-4.2521,2.639-5.132l11.7302-4.2521c1.1727-.4396,1.7591-.5864,2.3455-.5864,1.1734,0,1.613.5864,1.613,2.0526v64.6614c0,6.5982,1.0267,9.384,3.6657,12.6101l3.0793,3.6657-12.0237,10.41c-1.4663,1.1734-2.1987,1.3202-2.9318,1.3202-.8799,0-1.4663-.2935-2.6397-1.613l-3.3721-3.9592c-.8799-1.1727-2.0526-1.3195-3.3721-.1468-2.0534,1.7598-3.3729,2.9325-5.2787,4.3988-1.4663,1.0267-2.7858,1.3202-4.3988,1.3202-1.7598,0-3.8125-.4403-6.0119-1.0267l-7.0378-2.0526c-8.5041-2.493-9.9704-5.7183-9.9704-15.3959v-66.2745Z"/><path class="cls-4" d="m462.3126,526.616l7.9177-12.1705c1.4663-2.1994,2.9325-1.9059,4.9852-1.3195l9.0912,2.6397c5.8651,1.7591,9.0905-1.4663,9.0905-6.745,0-3.9592-2.9325-6.745-9.384-13.3432l-7.771-7.9177c-6.3047-6.3047-11.5834-12.023-11.5834-19.794,0-10.8503,8.5041-21.1142,20.0875-25.8059,1.4663-.5871,2.7858-.8799,3.9592-.8799,1.6123,0,2.7858.2928,4.2521.7331l17.4478,4.9852c1.9066.5864,1.9066,2.0526,1.0267,3.3721l-7.9177,12.1698c-1.1727,1.7598-2.3462,2.0534-5.4248,1.1734l-6.3054-1.9066c-5.132-1.4663-7.6242.7331-7.6242,4.5456,0,3.3721,1.9059,5.4255,4.9852,8.5041l9.5308,9.6776c6.1579,6.1579,12.6094,12.7562,12.6094,22.1402,0,11.5834-7.6242,20.6746-16.8614,26.3929-2.7865,1.7591-5.4255,2.9325-8.0645,2.9325-1.613,0-3.5189-.4403-6.0119-1.1734l-17.0082-4.8384c-1.9066-.5864-1.9066-2.0526-1.0267-3.3721Z"/></g><g id="ICON"><path class="cls-2" d="m379.9221,299.9709c-2.4557,1.1588-4.7095,1.3704-7.9529,1.6471-.7678.0655-1.8784.1443-3.2305.1818-2.436,7.8817-5.5951,16.5579-9.7272,25.7366-5.4407,12.0854-11.3856,22.4146-17.0187,30.9874-19.421,6.4003-50.3922,13.5276-85.9927,13.7256-35.6005-.198-66.5718-7.3253-85.9927-13.7256-5.6331-8.5728-11.578-18.902-17.0187-30.9874-4.1321-9.1788-7.2912-17.8549-9.7272-25.7366-1.3521-.0375-2.4626-.1163-3.2305-.1818-3.2435-.2767-5.4972-.4883-7.9529-1.6471-.825-.3892-1.4561-.7831-1.8353-1.0353,1.7726,12.7098,3.5451,25.4196,5.3177,38.1293,1.6923,9.66,6.2747,26.5213,20.1528,40.4117,22.7739,22.7939,64.3688,28.0223,100.2869,13.3647,35.918,14.6577,77.513,9.4293,100.2869-13.3647,13.8782-13.8904,18.4606-30.7517,20.1528-40.4117,1.7726-12.7098,3.5451-25.4196,5.3177-38.1293-.3793.2521-1.0104.6461-1.8353,1.0353Z"/><path class="cls-3" d="m313.6151,317.2321s-3.5436,6.8239-10.1882,6.3371c-6.6516-.4867-13.7388-16.088-27.0386-20.9651-13.2964-4.8771-20.3904,2.9234-20.3904,2.9234,0,0-7.0906-7.8007-20.3834-2.9234-13.2964,4.8771-20.3868,20.4784-27.035,20.9651-6.6482.4867-10.1952-6.3371-10.1952-6.3371,0,0-2.216,5.8504,3.9931,14.1379,6.2021,8.2873,23.4843,11.7719,34.5681,8.2873,12.4042-3.9003,19.0523-13.6475,19.0523-13.6475,0,0,6.2057,10.2374,19.0594,13.6475,11.2041,2.9768,28.3696,0,34.5717-8.2873,6.2021-8.2873,3.9861-14.1379,3.9861-14.1379Z"/><path class="cls-3" d="m120.9543,263.1167c-2.5635-.1449-5.2935-.3052-8.4417-1.0107,1.6746,6.0723,3.7118,10.8458,5.3076,14.1216,3.5173,7.2206,5.7029,11.7073,10.6483,14.7303,4.9251,3.0107,10.1404,3.0739,13.0187,2.8641-2.2014-10.4727-4.4029-20.9454-6.6043-31.4182-2.3931,1.3597-6.316,1.1429-13.9286.7127Z"/><path class="cls-3" d="m391.0457,263.1167c2.5635-.1449,5.2935-.3052,8.4417-1.0107-1.6746,6.0723-3.7118,10.8458-5.3076,14.1216-3.5173,7.2206-5.7029,11.7073-10.6483,14.7303-4.9251,3.0107-10.1404,3.0739-13.0187,2.8641,2.2014-10.4727,4.4029-20.9454,6.6043-31.4182,2.3931,1.3597,6.316,1.1429,13.9286.7127Z"/><path class="cls-5" d="m481,115c-19.8745-1.7174-40.1378-6.8325-92-31-16.0436-7.4762-37.2822-17.7874-62-31,1.9873,3.1919,4.8568,8.8261,5,16,.1122,5.6236-1.4305,13.195-10,24-18.7028,23.5817-59.3585,48.0452-66,52-6.6415-3.9548-47.2973-28.4183-66-52-8.5695-10.805-10.1122-18.3764-10-24,.1431-7.1739,3.0127-12.8081,5-16-24.7178,13.2126-45.9564,23.5238-62,31-51.8622,24.1675-72.1255,29.2826-92,31-13.1781,1.1388-24.0541.5996-31,0,39.5482,70.4995,73.4528,119.175,84.5679,127.9217,10.081,7.9329,20.6139,11.0473,20.614,11.0473,5.2212,1.5438,9.8553,2.0516,12.6489,2.2372,7.7639.5157,11.6459.7736,14.1647-.8471,7.5458-4.8552,1.4723-17.8651,12.047-31.9999,0,0,.9281-1.2406,2.4332-2.9219,19.1908-21.4373,109.5241-21.4373,109.5242-21.4373,0,0,90.3334,0,109.5242,21.4373,1.5051,1.6813,2.4332,2.9218,2.4332,2.9219,10.5673,14.1248,4.5959,27.2415,12.047,31.9999,2.4652,1.5743,6.365,1.3319,14.1647.8471,1.4996-.0932,6.2149-.4421,11.3524-1.7903,0,0,11.0834-2.9086,21.9105-11.4941,11.1904-8.8736,45.1319-57.4501,84.5679-127.9217-6.9459.5996-17.8219,1.1388-31,0Z"/><polygon class="cls-1" points="256 0 274 55 332 73 274 91 256 146 238 91 180 73 238 55 256 0"/></g></g></svg>