<svg xmlns="http://www.w3.org/2000/svg" viewBox="0 0 16 13.5"><path d="m7.167,12.9965c-.4688.0011-.9376.0021-1.4065.0032v.0002c-.0172,0-.0343,0-.0515-.0002-.0172.0001-.0343.0001-.0515.0002v-.0002c-1.5386-.0035-3.0773-.0071-4.616-.0107-.1132-.0229-.4151-.0997-.6741-.3697-.2259-.2354-.3004-.4938-.3262-.6088-.0339-.3107-.0612-.7535-.0218-1.283.0346-.4636.0588-.787.2067-1.1852.2637-.7104.7273-1.1365.9025-1.2939.1659-.149.6324-.539,1.3483-.7502.29-.0855.5229-.1128,1.3047-.1413.4896-.0178,1.1431-.0341,1.9196-.0325h0c.0029-.0001.0051,0,.008,0s.005,0,.0079,0h0c.1071,0,.2058.0008.308.0012.0378.343.1819.6747.4474.9231l.5114.48c-.0059.0905-.0092.181-.0092.2728s.0033.1823.0092.2727l-.512.48c-.4472.4209-.5927,1.074-.3619,1.6247.2032.4865.4714.9481.7973,1.3716.0741.0966.1658.1734.2598.2462ZM5.709,0h0c-1.5966,0-2.891,1.2943-2.891,2.891v.2409c0,1.5966,1.2943,2.891,2.891,2.891h0c1.5966,0,2.891-1.2943,2.891-2.891v-.2409c0-1.5966-1.2943-2.891-2.891-2.891Zm10.1084,10.1228c.1658.1557.2314.3993.1434.609-.1506.3591-.3469.6939-.581.9986-.1382.1798-.3804.2445-.6649.1585l-.8121-.2454c-.2564.2035-.5428.3697-.852.4923l-.2098.8953c-.0547.2334-.2505.4058-.4884.4352-.1783.022-.3597.0336-.544.0336s-.3658-.0116-.5441-.0336c-.2379-.0294-.4337-.2017-.4883-.4351-.0873-.3727-.2098-.8953-.2098-.8953-.3092-.1226-.5956-.2888-.852-.4923l-.8794.2657c-.217.0656-.4595.0009-.5976-.1789-.2341-.3046-.4304-.6395-.581-.9986-.088-.2098-.0224-.4534.1434-.609l.6734-.6321c-.0234-.1606-.0397-.3236-.0397-.4907s.0162-.3301.0397-.4907l-.6734-.6321c-.1658-.1557-.2314-.3993-.1434-.609.1506-.3591.3469-.694.581-.9986.1382-.1798.3804-.2444.6649-.1585l.8121.2454c.2564-.2035.5428-.3697.852-.4923l.21-.8962c.0539-.2301.2476-.4047.4822-.4339.2052-.0255.3906-.0341.5501-.0341.2047,0,.3935.0141.5637.0357.2309.0294.4152.2044.4844.4999l.1941.8284c.3092.1226.5956.2888.852.4923l.8794-.2657c.217-.0656.4595-.0009.5976.1788.2341.3047.4304.6395.581.9986.088.2098.0224.4534-.1434.609l-.6734.6321c.0234.1606.0397.3236.0397.4907s-.0162.3301-.0397.4907l.6734.6321Zm-2.6025-1.1228c0-.7767-.6296-1.4062-1.4062-1.4062s-1.4062.6296-1.4062,1.4062.6296,1.4062,1.4062,1.4062,1.4062-.6296,1.4062-1.4062Z"/></svg>