<?xml version="1.0" encoding="UTF-8"?><svg id="b" xmlns="http://www.w3.org/2000/svg" viewBox="0 0 16 16"><g id="c"><path d="M8,1.5c3.5841,0,6.5,2.9159,6.5,6.5s-2.9159,6.5-6.5,6.5S1.5,11.5841,1.5,8,4.4159,1.5,8,1.5m0-1.5C3.5817,0,0,3.5817,0,8s3.5817,8,8,8,8-3.5817,8-8S12.4183,0,8,0h0Z"/><path d="M11.3956,10.585l-2.6456-2.6456V3.75c0-.4142-.3358-.75-.75-.75s-.75,.3358-.75,.75v4.4379c-.0179,.205,.0422,.4149,.199,.5718l.0205,.0205s.0002,.0002,.0003,.0003l2.8651,2.8652c.2815,.2815,.7379,.2815,1.0194,0l.0413-.0413c.2815-.2814,.2815-.7379,0-1.0193Z"/></g></svg>