<svg xmlns="http://www.w3.org/2000/svg" viewBox="0 0 81 36"><path d="M8.5,3h-3V1.5c0-.8284,.6716-1.5,1.5-1.5s1.5,.6716,1.5,1.5v1.5ZM30.5,1.5c0-.8284-.6716-1.5-1.5-1.5s-1.5,.6716-1.5,1.5v1.5h3V1.5Zm23,0c0-.8284-.6716-1.5-1.5-1.5s-1.5,.6716-1.5,1.5v1.5h3V1.5Zm22,0c0-.8284-.6716-1.5-1.5-1.5s-1.5,.6716-1.5,1.5v1.5h3V1.5Zm-29.6382,23.2764l-4.191-2.0955c-.1663-.0831-.3618,.0377-.3618,.2236v1.3455h-5.8212c-.2701,0-.4888,.3297-.4879,.7353,.001,.4028,.2183,.7288,.4865,.73l5.8226,.0252v1.355c0,.1859,.1956,.3068,.3618,.2236l4.191-2.0955c.1843-.0921,.1843-.355,0-.4472ZM81,6v27.0007c0,1.6564-1.3428,2.9993-2.9993,2.9993H2.9993c-1.6564,0-2.9993-1.3428-2.9993-2.9993V6c0-1.6569,1.3431-3,3-3h2.5v.5c0,.8284,.6716,1.5,1.5,1.5s1.5-.6716,1.5-1.5v-.5H27.5v.5c0,.8284,.6716,1.5,1.5,1.5s1.5-.6716,1.5-1.5v-.5h20v.5c0,.8284,.6716,1.5,1.5,1.5s1.5-.6716,1.5-1.5v-.5h19v.5c0,.8284,.6716,1.5,1.5,1.5s1.5-.6716,1.5-1.5v-.5h2.5c1.6569,0,3,1.3431,3,3Zm-2.5,12.4993c0-.2753-.224-.4993-.4993-.4993H2.9993c-.2753,0-.4993,.2239-.4993,.4993v14.5015c0,.2753,.224,.4993,.4993,.4993H78.0007c.2753,0,.4993-.224,.4993-.4993v-14.5015Z"/></svg>