<svg xmlns="http://www.w3.org/2000/svg" viewBox="0 0 16 16"><path d="M13.3943,3.3684h-.9733v-.7628c0-1.4391-1.1665-2.6057-2.6057-2.6057H2.6057C1.1666,0,0,1.1666,0,2.6057v7.4202c0,1.4391,1.1666,2.6057,2.6057,2.6057h.9733v.7628c0,1.4391,1.1666,2.6057,2.6057,2.6057h7.2097c1.439,0,2.6057-1.1666,2.6057-2.6057V5.9741c0-1.4391-1.1666-2.6057-2.6057-2.6057ZM3.579,5.9741v5.1837h-.9733c-.6242,0-1.132-.5078-1.132-1.132V2.6057c0-.6241,.5078-1.132,1.132-1.132h7.2097c.6242,0,1.132,.5078,1.132,1.132v.7628H6.1846c-1.4391,0-2.6057,1.1666-2.6057,2.6057Zm10.9473,7.4202c0,.6242-.5078,1.132-1.132,1.132H6.1846c-.6242,0-1.132-.5078-1.132-1.132V5.9741c0-.6242,.5078-1.132,1.132-1.132h7.2097c.6241,0,1.132,.5078,1.132,1.132v7.4202Z"/></svg>