<svg xmlns="http://www.w3.org/2000/svg" viewBox="0 0 16 16"><path d="m9.7773,15.795c.0928-.0212.1835-.0463.2751-.0707.1996-.0529.3959-.1124.589-.1801.0784-.0276.1562-.0555.2335-.0854.2159-.0833.4265-.1761.6329-.2772.0468-.0231.0947-.044.141-.0679,2.5817-1.327,4.3512-4.0111,4.3512-7.1136,0-1.8209-.6153-3.4942-1.6398-4.8387h0c-.7209-.9462-1.6445-1.7265-2.7107-2.2747-.047-.0243-.0955-.0455-.143-.0688-.2057-.1006-.4155-.1932-.6307-.2762-.0778-.0302-.1562-.0583-.2352-.0861-.1927-.0675-.3887-.1268-.5879-.1796-.0916-.0244-.1824-.0496-.2753-.0708-.2022-.0459-.408-.0809-.6158-.1112-.0881-.0129-.1745-.0302-.2635-.0402-.2952-.033-.5941-.0535-.8981-.0535s-.6029.0205-.8981.0535c-.089.01-.1754.0273-.2635.0402-.2078.0303-.4136.0653-.6158.1112-.0929.0212-.1837.0464-.2753.0708-.1992.0529-.3951.1121-.5879.1796-.0789.0278-.1573.0559-.2352.0861-.2151.083-.4249.1756-.6307.2762-.0475.0233-.096.0446-.143.0688-1.0662.5482-1.9897,1.3285-2.7107,2.2746h0c-1.0245,1.3446-1.6398,3.0179-1.6398,4.8388,0,3.1025,1.7695,5.7866,4.3512,7.1136.0463.0239.0942.0449.141.0679.2064.1011.417.1939.6329.2772.0773.03.1551.0579.2335.0854.1931.0677.3894.1271.589.1801.0916.0244.1823.0496.2751.0707.2022.0459.408.0809.6158.1112.0881.0129.1745.0302.2635.0402.2952.033.5941.0535.8981.0535s.6029-.0205.8981-.0535c.089-.01.1754-.0273.2635-.0402.2078-.0303.4136-.0653.6158-.1112Zm1.7036-2.0227c-.0521.0315-.103.0648-.1561.0949-.1532.0874-.318.1508-.4774.2257.2395-.3704.4549-.7885.6461-1.2431.2979.0907.5883.1886.8582.3018-.0028.0024-.0053.0051-.0081.0074-.2711.2302-.5621.4306-.8627.6133Zm-6.9621-.0002c-.3004-.1826-.5912-.3829-.8621-.6129-.0029-.0024-.0054-.0052-.0084-.0076.27-.1132.5603-.2111.8582-.3018.1912.4546.4066.8727.6461,1.2431-.1593-.0748-.324-.1382-.4771-.2255-.0532-.0303-.1044-.0637-.1567-.0953Zm-.9015-5.1471c.0465,1.0914.2125,2.1204.4758,3.0451-.4893.152-.9471.3297-1.3657.533-.7997-1.0012-1.3214-2.232-1.4457-3.5781h2.3356Zm.0395-5.7844c.2708-.2297.5613-.43.8615-.6125.0526-.0318.1041-.0654.1575-.0958.153-.0873.3176-.1506.4768-.2253-.2395.3704-.455.7885-.6461,1.243-.2979-.0907-.5883-.1886-.8582-.3018.0029-.0024.0056-.0052.0084-.0076Zm7.8249-.6125c.3002.1825.5908.3828.8615.6125.0029.0024.0056.0052.0084.0076-.2699.1132-.5603.2111-.8582.3018-.1912-.4546-.4066-.8727-.6461-1.2431.1592.0748.3238.1381.4768.2254.0535.0304.1049.064.1575.0958Zm3.2366,6.3969c-.1243,1.3461-.646,2.5769-1.4457,3.5781-.4186-.2032-.8764-.3809-1.3657-.533.2633-.9247.4293-1.9537.4758-3.0451h2.3356Zm-4.025,2.7343c-.6534-.1292-1.3481-.2079-2.0684-.2388v-2.4955h2.5083c-.0472,1.0009-.2051,1.9237-.4399,2.7343Zm-3.3184,3.2233c-.5958-.304-1.1768-1.0211-1.6323-2.0318.5238-.0944,1.0735-.1459,1.6323-.1726v2.2044Zm1.25-2.2044c.5588.0267,1.1086.0782,1.6323.1725-.4555,1.0107-1.0366,1.7279-1.6323,2.0319v-2.2044Zm0-5.0032v-2.4955c.7202-.0309,1.4149-.1096,2.0684-.2388.2348.8106.3928,1.7334.4399,2.7344h-2.5083Zm0-3.7532V1.4174c.5957.3039,1.1768,1.0211,1.6323,2.0317-.5238.0944-1.0735.1459-1.6323.1727Zm-1.25-2.2043v2.2043c-.5588-.0267-1.1085-.0782-1.6323-.1727.4555-1.0106,1.0366-1.7278,1.6323-2.0317Zm0,3.462v2.4955h-2.5083c.0472-1.001.2051-1.9238.4399-2.7344.6534.1292,1.3481.2079,2.0684.2388Zm0,3.7455v2.4955c-.7202.0309-1.4149.1096-2.0684.2388-.2348-.8106-.3928-1.7334-.4399-2.7343h2.5083Zm7.3433-1.25h-2.3356c-.0465-1.0915-.2125-2.1205-.4758-3.0452.4893-.152.9471-.3297,1.3657-.533.7997,1.0012,1.3214,2.2321,1.4457,3.5781Zm-10.6252-3.0452c-.2633.9247-.4293,1.9537-.4758,3.0452H1.2817c.1243-1.3461.646-2.577,1.4457-3.5781.4186.2033.8764.3809,1.3657.533Z"/></svg>