<svg xmlns="http://www.w3.org/2000/svg" viewBox="0 0 16 12"><path d="M2.5,1.25h0c0,.6904-.5596,1.25-1.25,1.25h0c-.6904,0-1.25-.5596-1.25-1.25H0C0,.5596,.5596,0,1.25,0h0c.6904,0,1.25,.5596,1.25,1.25ZM1.25,9.5h0c-.6904,0-1.25,.5596-1.25,1.25H0c0,.6904,.5596,1.25,1.25,1.25h0c.6904,0,1.25-.5596,1.25-1.25h0c0-.6904-.5596-1.25-1.25-1.25Zm0-4.75h0c-.6904,0-1.25,.5596-1.25,1.25H0c0,.6904,.5596,1.25,1.25,1.25h0c.6904,0,1.25-.5596,1.25-1.25h0c0-.6904-.5596-1.25-1.25-1.25ZM15,.25H5c-.5523,0-1,.4477-1,1h0c0,.5523,.4477,1,1,1H15c.5523,0,1-.4477,1-1h0c0-.5523-.4477-1-1-1Zm0,9.5H5c-.5523,0-1,.4477-1,1h0c0,.5523,.4477,1,1,1H15c.5523,0,1-.4477,1-1h0c0-.5523-.4477-1-1-1Zm0-4.75H5c-.5523,0-1,.4477-1,1h0c0,.5523,.4477,1,1,1H15c.5523,0,1-.4477,1-1h0c0-.5523-.4477-1-1-1Z"/></svg>