<svg xmlns="http://www.w3.org/2000/svg" viewBox="0 0 16 16"><path d="M12.75,6.4319l1.75-1.75V13.5042c0,1.3784-1.1174,2.4958-2.4958,2.4958H2.4958c-1.3784,0-2.4958-1.1174-2.4958-2.4958V3.9958C0,2.6174,1.1174,1.5,2.4958,1.5H11.318l-1.7499,1.75H2.4958c-.4113,0-.7458,.3345-.7458,.7458V13.5042c0,.4112,.3345,.7458,.7458,.7458H12.0042c.4113,0,.7458-.3346,.7458-.7458V6.4319ZM15.7799,.3948l-.1748-.1747c-.2934-.2935-.7692-.2935-1.0626,0l-.5294,.5293,1.2374,1.2374,.5294-.5293c.2935-.2935,.2935-.7692,0-1.0627ZM6.3473,8.4153l-.8566,1.8085c-.0432,.0912-.0307,.1913,.0317,.2538,.0624,.0624,.1626,.075,.2538,.0317l1.8063-.8557L14.6542,2.5832l-1.2374-1.2375-7.0695,7.0696Z"/></svg>