<svg xmlns="http://www.w3.org/2000/svg" viewBox="0 0 36 36"><path d="M3.5148,29.462c-1.1169-.323-1.9297-.7165-2.44-1.1861-.5075-.4668-.7627-1.0449-.7627-1.7343,0-.7762,.3108-1.4195,.9337-1.9297,.6215-.5075,1.4303-.7627,2.4251-.7627,.6785,0,1.2838,.1303,1.8144,.3935,.532,.2633,.9445,.6242,1.2349,1.0856,.2931,.4614,.4383,.9662,.4383,1.5118h-1.3096c0-.5971-.19-1.0694-.57-1.4113s-.916-.5157-1.6081-.5157c-.6419,0-1.144,.1438-1.5023,.4261-.361,.2823-.5401,.6758-.5401,1.1806,0,.4017,.171,.7437,.513,1.0232,.3406,.2768,.9228,.532,1.7425,.7627,.8224,.2307,1.4643,.4858,1.927,.7654,.4641,.2768,.8088,.6025,1.0314,.9717,.2253,.3718,.3366,.8088,.3366,1.3109,0,.8007-.3121,1.4412-.9364,1.9243-.6242,.4804-1.4588,.722-2.5038,.722-.6785,0-1.3123-.1303-1.8999-.3908s-1.0409-.6161-1.3611-1.0694c-.3176-.4505-.4777-.9635-.4777-1.5389H1.3096c0,.5971,.2212,1.0694,.6609,1.4141,.4424,.3474,1.0314,.5211,1.7682,.5211,.688,0,1.2146-.1411,1.581-.4234,.3664-.2796,.5496-.6622,.5496-1.1454s-.1696-.8577-.5089-1.1236c-.3393-.2633-.954-.5265-1.8456-.7817Z"/><path d="M13.1838,33.8643c-.0719-.1438-.1316-.4017-.1764-.7735-.5835,.6052-1.2797,.9092-2.0899,.9092-.7233,0-1.3177-.2036-1.7805-.6134-.4641-.4098-.6962-.9282-.6962-1.5579,0-.7654,.2904-1.3571,.8726-1.7805,.5808-.4234,1.3978-.6351,2.4522-.6351h1.2214v-.5754c0-.4397-.1316-.7898-.3935-1.0504s-.6487-.3881-1.1603-.3881c-.4478,0-.8237,.1113-1.1264,.3366-.3026,.228-.4546,.5021-.4546,.8224h-1.2621c0-.3664,.1303-.7192,.3895-1.0612,.2606-.342,.6134-.6134,1.0585-.8115,.4465-.1981,.9364-.2986,1.4697-.2986,.8454,0,1.509,.2117,1.9881,.6351,.479,.4234,.7287,1.0042,.7464,1.7452v3.3818c0,.6731,.0855,1.2078,.2578,1.6068v.1086h-1.3163Zm-2.0831-.9554c.3935,0,.7667-.1031,1.1196-.3067s.608-.4695,.7667-.7952v-1.5036h-.9839c-1.5375,0-2.307,.4478-2.307,1.3489,0,.3935,.1316,.7002,.3935,.9228s.5998,.3338,1.011,.3338Z"/><path d="M18.5306,32.1598l1.8185-5.6372h1.2824l-2.6313,7.3417h-.9581l-2.6598-7.3417h1.2824l1.866,5.6372Z"/><path d="M25.7949,34c-.9934,0-1.8022-.3257-2.4264-.9798s-.9391-1.528-.9391-2.6245v-.228c0-.7301,.1411-1.3788,.418-1.9514,.2796-.5727,.6677-1.0205,1.1671-1.3435s1.0422-.4858,1.6258-.4858c.9554,0,1.6963,.3148,2.2256,.9418,.5293,.6297,.7952,1.5308,.7952,2.7033v.5211h-4.975c.019,.7247,.2307,1.3082,.6351,1.7533s.9201,.6677,1.5443,.6677c.4424,0,.8169-.0896,1.1236-.2714,.3094-.1791,.5781-.418,.8088-.7165l.7654,.5971c-.6134,.9445-1.5362,1.4168-2.7684,1.4168Zm-.1547-6.5817c-.5075,0-.9309,.1846-1.2756,.5537s-.5564,.8848-.6378,1.5498h3.6776v-.095c-.0353-.6378-.209-1.1318-.5157-1.4819s-.7247-.5265-1.2485-.5265Z"/><path d="M29.8064,30.1324c0-1.1264,.266-2.0329,.7979-2.7168,.5347-.6867,1.2349-1.0286,2.098-1.0286,.8604,0,1.5389,.2931,2.0437,.8821v-3.8269h1.2539v10.4222h-1.1535l-.0624-.7871c-.4994,.6161-1.1996,.9228-2.0953,.9228-.8495,0-1.5443-.3474-2.079-1.0449-.5374-.6975-.8034-1.6068-.8034-2.7277v-.095Zm1.2539,.1438c0,.8305,.171,1.4819,.5157,1.9542,.3447,.4695,.8197,.7057,1.4249,.7057,.7952,0,1.3761-.3583,1.7452-1.0748v-3.3709c-.3773-.6921-.9527-1.0368-1.7316-1.0368-.6161,0-1.0938,.2361-1.4385,.7111s-.5157,1.1779-.5157,2.1116Z"/><polyline points="15.5251 19.0711 7.747 11.2929 9.1612 9.8787 15.5251 16.2426 26.8388 4.9289 28.253 6.3431"/></svg>