<?xml version="1.0" encoding="UTF-8"?><svg id="b" xmlns="http://www.w3.org/2000/svg" viewBox="0 0 36 36"><defs><style>.e{opacity:.12;}.f{opacity:.2;}.g{opacity:.28;}.h{opacity:.44;}.i{opacity:.36;}.j{opacity:.68;}.k{opacity:.6;}.l{opacity:.52;}.m{opacity:.92;}.n{opacity:.84;}.o{opacity:.76;}</style></defs><g id="c"><g id="d"><path d="M3.1807,29.4003c-1.0119-.2923-1.7463-.6484-2.2081-1.0733-.4593-.4225-.6902-.9456-.6902-1.5695,0-.7025,.28-1.2846,.8449-1.7463,.5625-.4593,1.2944-.6902,2.1934-.6902,.614,0,1.1618,.1179,1.6432,.3561s.8547,.5649,1.1176,.9825c.2653,.4175,.3954,.8744,.3954,1.3681h-1.1839c0-.5404-.1719-.9677-.5158-1.2772s-.8302-.4667-1.4565-.4667c-.5797,0-1.034,.1302-1.3583,.3856-.3267,.2554-.4888,.6116-.4888,1.0684,0,.3635,.1547,.673,.4642,.926,.307,.2505,.8351,.4814,1.5769,.6902,.7442,.2088,1.3239,.4397,1.7439,.6926,.42,.2505,.7319,.5453,.9333,.8793,.2039,.3365,.3046,.7319,.3046,1.1863,0,.7246-.2825,1.3042-.8474,1.7414-.5649,.4347-1.3214,.6533-2.267,.6533-.614,0-1.1863-.1179-1.7193-.3537-.5305-.2358-.9407-.5575-1.2305-.9677-.2874-.4077-.4323-.8719-.4323-1.3926H1.1839c0,.5404,.2014,.9677,.5993,1.2797,.4004,.3144,.9333,.4716,1.599,.4716,.6239,0,1.1004-.1277,1.4319-.3832,.3316-.253,.4961-.5993,.4961-1.0365s-.1523-.7761-.4593-1.0169c-.307-.2382-.8646-.4765-1.6702-.7074Z"/><path d="M11.9296,33.3842c-.0639-.1302-.1179-.3635-.1597-.7-.5281,.5477-1.1569,.8228-1.8912,.8228-.6533,0-1.1912-.1842-1.6112-.5551s-.6288-.84-.6288-1.4098c0-.6926,.2628-1.2281,.7884-1.6112s1.2649-.5747,2.2204-.5747h1.1053v-.5207c0-.3979-.1204-.7147-.3561-.9505-.2382-.2358-.587-.3512-1.0512-.3512-.4053,0-.7442,.1007-1.0193,.3046-.2726,.2063-.4102,.4544-.4102,.7442h-1.1421c0-.3316,.1179-.6509,.3512-.9604,.2358-.3095,.5551-.5551,.9579-.7344,.4053-.1793,.8474-.2702,1.3312-.2702,.7639,0,1.3656,.1916,1.7979,.5747,.4347,.3832,.6607,.9088,.6754,1.5793v3.0604c0,.6091,.0786,1.093,.2333,1.454v.0982h-1.1912Zm-1.8839-.8646c.3561,0,.6926-.0933,1.0119-.2775s.5502-.4249,.6951-.7197v-1.3607h-.8916c-1.3902,0-2.0877,.4053-2.0877,1.2207,0,.3561,.1204,.6337,.3561,.8351,.2382,.2014,.5428,.3021,.9161,.3021Z"/><path d="M16.7682,31.8417l1.6456-5.1015h1.1618l-2.3825,6.6439h-.867l-2.407-6.6439h1.1618l1.6874,5.1015Z"/><path d="M20.6711,24.9792c0-.1867,.0565-.3414,.1695-.4667,.113-.1277,.28-.1916,.5011-.1916s.3881,.0639,.5035,.1916c.1154,.1253,.1719,.28,.1719,.4667,0,.1818-.0565,.3365-.1719,.4593s-.2825,.1842-.5035,.1842-.3881-.0614-.5011-.1842-.1695-.2775-.1695-.4593Zm1.2281,8.405h-1.1347v-6.6439h1.1347v6.6439Z"/><path d="M24.795,26.7403l.0344,.8351c.5084-.6386,1.1716-.9579,1.9895-.9579,1.4049,0,2.1123,.7933,2.127,2.3751v4.3916h-1.1372v-4.3965c-.0049-.479-.113-.8326-.3291-1.0611-.2137-.2309-.5477-.3439-1.0046-.3439-.3684,0-.6902,.0982-.9677,.2947-.28,.1965-.4961,.4519-.6533,.7712v4.7355h-1.1347v-6.6439h1.0758Z"/><path d="M30.3877,30.007c0-1.0365,.2407-1.8593,.7172-2.4709,.4814-.6116,1.1151-.9186,1.906-.9186,.8105,0,1.4418,.2874,1.8962,.8597l.054-.7368h1.039v6.4843c0,.8597-.2554,1.5376-.7639,2.0312-.5109,.4961-1.1937,.7442-2.0534,.7442-.4814,0-.9481-.1032-1.4074-.307s-.8081-.4863-1.0488-.84l.5895-.6828c.4863,.6018,1.0807,.9039,1.7856,.9039,.5526,0,.9825-.1572,1.2919-.4667,.3095-.3119,.4642-.7516,.4642-1.3165v-.5698c-.4544,.5232-1.0758,.786-1.8618,.786-.7761,0-1.4049-.3144-1.8863-.9383-.4814-.6288-.7221-1.4811-.7221-2.5618Zm1.1421,.1302c0,.7467,.1547,1.3362,.4593,1.7635,.3095,.4274,.7368,.6435,1.2919,.6435,.7147,0,1.2404-.3267,1.5769-.9776v-3.0334c-.3488-.6337-.8695-.9505-1.567-.9505-.5502,0-.9825,.2137-1.2944,.6435s-.4667,1.066-.4667,1.9109Z"/></g><path class="g" d="M23,10h0c0-.3945,.3731-.7143,.8333-.7143h3.3333c.4602,0,.8333,.3198,.8333,.7143h0c0,.3945-.3731,.7143-.8333,.7143h-3.3333c-.4602,0-.8333-.3198-.8333-.7143Z"/><path class="o" d="M8,10h0c0-.3945,.3731-.7143,.8333-.7143h3.3333c.4602,0,.8333,.3198,.8333,.7143h0c0,.3945-.3731,.7143-.8333,.7143h-3.3333c-.4602,0-.8333-.3198-.8333-.7143Z"/><path class="l" d="M18,15h0c.3945,0,.7143,.3731,.7143,.8333v3.3333c0,.4602-.3198,.8333-.7143,.8333h0c-.3945,0-.7143-.3731-.7143-.8333v-3.3333c0-.4602,.3198-.8333,.7143-.8333Z"/><path class="i" d="M26.9636,15.035h0c-.1972,.3416-.6847,.4294-1.0889,.196l-2.9271-1.69c-.4041-.2333-.5719-.6994-.3747-1.041h0c.1972-.3416,.6847-.4294,1.0889-.196l2.9271,1.69c.4041,.2333,.5719,.6994,.3747,1.041Z"/><path class="f" d="M26.9636,4.965h0c-.1972-.3416-.6847-.4294-1.0889-.196l-2.9271,1.69c-.4041,.2333-.5719,.6994-.3747,1.041h0c.1972,.3416,.6847,.4294,1.0889,.196l2.9271-1.69c.4041-.2333,.5719-.6994,.3747-1.041Z"/><path class="j" d="M9.0364,15.035h0c.1972,.3416,.6847,.4294,1.0889,.196l2.9271-1.69c.4041-.2333,.5719-.6994,.3747-1.041h0c-.1972-.3416-.6847-.4294-1.0889-.196l-2.9271,1.69c-.4041,.2333-.5719,.6994-.3747,1.041Z"/><path class="n" d="M9.0364,4.965h0c.1972-.3416,.6847-.4294,1.0889-.196l2.9271,1.69c.4041,.2333,.5719,.6994,.3747,1.041h0c-.1972,.3416-.6847,.4294-1.0889,.196l-2.9271-1.69c-.4041-.2333-.5719-.6994-.3747-1.041Z"/><path class="h" d="M23.035,18.9636h0c-.3416,.1972-.8078,.0295-1.0411-.3747l-1.69-2.9272c-.2333-.4042-.1456-.8917,.1961-1.0889h0c.3416-.1972,.8078-.0295,1.0411,.3747l1.69,2.9272c.2333,.4042,.1456,.8917-.1961,1.0889Z"/><path class="e" d="M23.035,1.0364h0c-.3416-.1972-.8078-.0295-1.0411,.3747l-1.69,2.9272c-.2333,.4042-.1456,.8917,.1961,1.0889h0c.3416,.1972,.8078,.0295,1.0411-.3747l1.69-2.9272c.2333-.4042,.1456-.8917-.1961-1.0889Z"/><path class="k" d="M12.965,18.9636h0c.3416,.1972,.8078,.0295,1.0411-.3747l1.69-2.9272c.2333-.4042,.1456-.8917-.1961-1.0889h0c-.3416-.1972-.8078-.0295-1.0411,.3747l-1.69,2.9272c-.2333,.4042-.1456,.8917,.1961,1.0889Z"/><path class="m" d="M12.965,1.0364h0c.3416-.1972,.8078-.0295,1.0411,.3747l1.69,2.9272c.2333,.4042,.1456,.8917-.1961,1.0889h0c-.3416,.1972-.8078,.0295-1.0411-.3747l-1.69-2.9272c-.2333-.4042-.1456-.8917,.1961-1.0889Z"/><path d="M18,0h0c.3945,0,.7143,.3731,.7143,.8333v3.3333c0,.4602-.3198,.8333-.7143,.8333h0c-.3945,0-.7143-.3731-.7143-.8333V.8333C17.2857,.3731,17.6055,0,18,0Z"/></g></svg>