<svg xmlns="http://www.w3.org/2000/svg" viewBox="0 0 16.2373 15"><path d="M14.3523,.8849c-.54-.555-1.29-.8849-2.115-.8849s-1.575,.33-2.1149,.8849c-.5551,.54-.8851,1.29-.8851,2.1151s.33,1.575,.8851,2.1149c.54,.555,1.29,.8851,2.1149,.8851,1.65,0,3-1.35,3-3,0-.825-.33-1.575-.885-2.1151Zm-2.115,3.6151c-.4125,0-.7875-.165-1.0575-.4426-.2775-.27-.4425-.645-.4425-1.0574s.165-.7875,.4425-1.0576c.27-.2775,.645-.4424,1.0575-.4424s.7875,.165,1.0575,.4424c.2775,.2701,.4425,.6451,.4425,1.0576,0,.825-.675,1.5-1.5,1.5Z"/><path d="M5.115,5.6476c-.54-.555-1.29-.8849-2.115-.8849s-1.575,.33-2.1149,.8849c-.5551,.54-.8851,1.29-.8851,2.1151s.33,1.575,.8851,2.1149c.54,.555,1.29,.8851,2.1149,.8851,1.65,0,3-1.35,3-3,0-.825-.33-1.575-.885-2.1151Zm-2.115,3.6151c-.4125,0-.7875-.165-1.0575-.4426-.2775-.27-.4425-.645-.4425-1.0574s.165-.7875,.4425-1.0576c.27-.2775,.645-.4424,1.0575-.4424s.7875,.165,1.0575,.4424c.2775,.2701,.4425,.6451,.4425,1.0576,0,.825-.675,1.5-1.5,1.5Z"/><path d="M15.3523,9.8849c-.54-.555-1.29-.8849-2.115-.8849s-1.575,.33-2.1149,.8849c-.5551,.54-.8851,1.29-.8851,2.1151s.33,1.575,.8851,2.1149c.54,.555,1.29,.8851,2.1149,.8851,1.65,0,3-1.35,3-3,0-.825-.33-1.575-.885-2.1151Zm-2.115,3.6151c-.4125,0-.7875-.165-1.0575-.4426-.2775-.27-.4425-.645-.4425-1.0574s.165-.7875,.4425-1.0576c.27-.2775,.645-.4424,1.0575-.4424s.7875,.165,1.0575,.4424c.2775,.2701,.4425,.6451,.4425,1.0576,0,.825-.675,1.5-1.5,1.5Z"/><path d="M4.7639,9.2627l6.2736,3.1368,.8944-1.7889-6.2736-3.1368-.8944,1.7889Z"/><path d="M4.2124,5.8944l5.5777-2.7889,.8944,1.7889-5.5777,2.7889-.8944-1.7889Z"/></svg>