<svg xmlns="http://www.w3.org/2000/svg" viewBox="0 0 16 16"><path d="M0,16l1-3H15l1,3H0Z"/><path d="M8,1c3.8598,0,7,3.1402,7,7,0,1.0356-.2343,2.0621-.6815,3H1.6815c-.4472-.9379-.6815-1.9644-.6815-3C1,4.1402,4.1402,1,8,1m0-1C3.5817,0,0,3.5817,0,8c0,1.4589,.3968,2.8224,1.079,4H14.921c.6822-1.1776,1.079-2.5411,1.079-4C16,3.5817,12.4183,0,8,0h0Z"/><path d="M5.3215,1.1953c-.4004,.0084-1.5238,.1015-2.6207,1.1589-1.1376,1.0965-1.5455,2.554-1.6668,3.053,.0412,.1467,.1134,.3634,.2392,.595,.0002,.0002,.1214,.2235,.2791,.4098,.5156,.6093,1.9985,.3748,2.3662,1.1748,.2706,.5887-.219,1.3825,.185,1.9468,.1137,.1587,.1514,.0895,.289,.2512,.5179,.6081,.1126,1.4824,.5163,1.8563,.2069,.1917,.5376,.1392,.7264-.031,.328-.2957,.158-.5763,.4614-1.0453,.3373-.5212,.7417-.2278,1.0779-.6602,.4434-.5703,.441-1.983-.0414-2.5392-.4136-.4768-.9332,.0848-2.0828-.357-.0226-.0086-.3737-.1478-.7574-.5038-.244-.2264-.5002-.4705-.4883-.78,.0067-.1773,.1011-.3639,.2292-.4613,.4583-.3481,1.1117,.6397,1.5248,.2762,.1058-.0932,.1847-.2582,.1993-.423,.0482-.5437-.6315-.7639-.6481-1.3223-.0152-.5124,.5504-.6662,.6353-1.2993,.0677-.505-.204-.9888-.4236-1.2993v-.0002Z"/><path d="M10.5482,1.2659l-.7765,.5882c-.1217,.197-.0973,.4178,.0235,.5176,.0835,.069,.1927,.0634,.2353,.0588l.7647-.5294c.0953-.0761,.2351-.058,.3059,.0353,.0672,.0886,.0532,.2196-.0353,.2941-.2212,.307-.4485,.4472-.6235,.5176-.2373,.0956-.4651,.098-.6353,.3059-.0734,.0896-.0451,.1064-.1412,.2588-.1812,.2875-.3228,.2929-.4235,.4706-.1314,.2317-.1252,.6362,.1176,.8235,.1764,.1361,.4664,.1489,.6353,.0235,.1943-.1443,.1656-.4251,.3647-.4824,.076-.0219,.1436,.0008,.1765,.0118,.2821,.0944,.252,.4767,.4941,.5412,.085,.0227,.1927,.0032,.2471-.0588,.105-.1199-.0775-.2983,0-.4706,.1061-.2358,.5444-.1156,.6941-.3882,.0772-.1405-.0074-.2302,.0941-.3529,.1006-.1216,.2702-.138,.4235-.1529,.097-.0094,.2602-.0128,.4588,.0471,.0189,.0079,.1463,.0631,.1765,.1882,.0254,.1055-.03,.212-.0941,.2706-.1697,.1551-.3856-.0379-.7059,.0941-.0261,.0108-.311,.1321-.3176,.3294-.0003,.0087-.0021,.1095,.0706,.1765,.1115,.1026,.2537-.0072,.4471,.0588,.1484,.0507,.309,.1988,.3059,.3412-.0034,.1556-.1998,.1985-.2471,.4235-.0197,.0938-.0048,.1776,.0118,.2353,.0646,.1162,.313,.53,.8,.6588,.1414,.0374,.2709,.0423,.3765,.0353l1.0588-.1059-1.0353-2.8706-2.2235-1.6941-1.0235-.2Z"/><path d="M8.6953,3.4541c.1636,.0971,.4483-.0527,.5824-.2382,.2254-.312,.0278-.7294,.0176-.75-.0195-.1402-.1501-.2279-.2647-.2029-.0921,.0201-.1652,.111-.1676,.2206,.1186,.2315,.106,.3668,.0618,.45-.0879,.1652-.3207,.1629-.3441,.3088-.0133,.0832,.0483,.1724,.1147,.2118Z"/><path d="M8.607,6.5159c.0563-.2777,.1929-.4597,.2735-.5647,.349-.4544,.8414-.5931,1.0324-.6441,.1861-.0497,.4932-.1316,.8559-.0441,.3821,.0922,.686,.3519,.8029,.45,.2111,.177,.2441,.2649,.4302,.343,.254,.1066,.3272-.0006,.5647,.0997,.2669,.1126,.2412,.2762,.5448,.4252,.2565,.1259,.3635,.0527,.4185,.1462,.0994,.1687-.219,.4591-.7574,1.2822-.1767,.2702-.2651,.4053-.3122,.5248-.23,.5828,.0238,.8355-.1329,1.3021-.1895,.5643-.8397,1.025-1.2357,.8902-.2141-.0729-.3137-.3062-.3787-.4584-.2398-.5617,.0787-.8962-.1262-1.6277-.0662-.2363-.1051-.3679-.2325-.4584-.2602-.1849-.552,.0413-.9367-.1594-.1055-.055-.1833-.1297-.3388-.279-.1836-.1763-.2973-.2854-.3835-.4599-.1552-.3143-.1163-.629-.0882-.7676Z"/><path d="M5.86,1.0012c-.0065,.1017,.6325,.1238,.7059,.4412,.0657,.2843-.3877,.5218-.2875,.8267,.0397,.121,.1569,.223,.2699,.2321,.1375,.0111,.24-.1176,.3347-.2122,.3631-.3627,.6146-.2266,1.0771-.5643,.1435-.1048,.5888-.4297,.5294-.6529-.1305-.4909-2.6164-.2734-2.6294-.0706Z"/></svg>