<svg xmlns="http://www.w3.org/2000/svg" viewBox="0 0 16 15.2254"><path d="m12,10.6127v-2h-4v-2h4v-2l4,3-4,3ZM6,1.0024v13.2206c0,.6837-.6698,1.1664-1.3184.9503l-3.9967-1.3323c-.409-.1364-.6849-.5191-.6849-.9503V2.3346c0-.4312.2759-.8139.6849-.9503L4.6816.0522c.6486-.2162,1.3184.2665,1.3184.9503Zm-.75,6.6103c0-.5523-.4477-1-1-1s-1,.4477-1,1,.4477,1,1,1,1-.4478,1-1ZM9.4969.6127h-2.4969v1h2.4969c.2774,0,.5031.2257.5031.5031v2.4969h1v-2.4969c0-.8301-.673-1.5031-1.5031-1.5031Zm.5031,11v1.4968c0,.2775-.2257.5032-.5031.5032h-2.4969v1h2.4969c.8301,0,1.5031-.673,1.5031-1.5032v-2.4968h-1v1Z"/></svg>