<?xml version="1.0" encoding="UTF-8"?><svg id="b" xmlns="http://www.w3.org/2000/svg" viewBox="0 0 16 16"><defs><style>.d{fill:#de071c;}</style></defs><g id="c"><path class="d" d="M8,0C3.5817,0,0,3.5817,0,8s3.5817,8,8,8,8-3.5817,8-8S12.4183,0,8,0Zm.7338,3.625l-.1159,6.5292h-1.2399l-.1159-6.5292h1.4717Zm.0338,8.8044c-.082,.1359-.1907,.2441-.324,.3246-.1343,.0805-.282,.121-.4431,.121-.2482,0-.4595-.0872-.6359-.262-.1764-.1744-.2625-.3856-.2595-.6333-.0031-.2446,.0831-.4538,.2595-.6287,.1764-.1744,.3877-.2615,.6359-.2615,.241,0,.4502,.0872,.6256,.2615,.1764,.1749,.2656,.3841,.2687,.6287-.0031,.1641-.0451,.3143-.1272,.4497Z"/></g></svg>