<svg xmlns="http://www.w3.org/2000/svg" viewBox="0 0 16.5874 13.4852"><defs><style>path{fill:#333;}</style></defs><path d="M16.395,11.8031l-2.6662-2.0831c.9833-.7634,1.8293-1.7112,2.4271-2.8482,.0782-.1488,.0782-.3335,0-.4823-1.5325-2.9151-4.5704-4.7589-7.8779-4.7589-1.3396,0-2.6326,.3068-3.8013,.8608L1.4237,.1062C1.2058-.0641,.8913-.0254,.7211,.1924L.1061,.9796c-.1702,.2178-.1315,.5323,.0862,.7026l2.4818,1.939h0l.1469,.1147L15.1637,13.3791c.2178,.1702,.5324,.1315,.7026-.0863l.615-.7872c.1702-.2178,.1316-.5323-.0862-.7026ZM8.278,2.6306c2.2092,0,4,1.7908,4,4,0,.5965-.1379,1.1575-.3737,1.6639l-.8287-.6474c.1181-.3195,.2024-.655,.2024-1.0165,0-1.6569-1.3431-3-3-3-.2757,0-.5376,.0493-.7912,.1189,.181,.2479,.2912,.5507,.2912,.8811,0,.1373-.0244,.2677-.059,.394l-1.9311-1.5088c.6837-.5488,1.5447-.8853,2.4901-.8853Zm.1057,7.9894l1.171,.9149c-.4195,.061-.8453,.0957-1.2767,.0957-3.3075,0-6.3454-1.8438-7.8779-4.7589-.0782-.1488-.0782-.3335,0-.4823,.2495-.4745,.5515-.9086,.8754-1.3231l3.0997,2.4218c.3933,1.796,1.9886,3.1425,3.9028,3.1425,.0362,0,.0698-.0096,.1057-.0106Z"/></svg>