<?xml version="1.0" encoding="UTF-8"?><svg id="b" xmlns="http://www.w3.org/2000/svg" viewBox="0 0 7.9854 15.7876"><g id="c"><path d="M5.9678,10.8823c0-.4707-.1494-.8594-.4482-1.166-.2988-.3076-.7969-.584-1.4941-.8301-.6973-.2466-1.2393-.4746-1.627-.6851-1.2891-.6919-1.9336-1.7153-1.9336-3.0713,0-.9185,.2793-1.6738,.8379-2.2661,.5596-.5923,1.3174-.9434,2.2744-1.0542V0h1.3281V1.8262c.9629,.1382,1.707,.5464,2.2334,1.2241,.5254,.6782,.7881,1.5596,.7881,2.644h-2.0088c0-.6973-.1562-1.2466-.4688-1.6479-.3125-.4009-.7373-.6016-1.2744-.6016-.5312,0-.9463,.144-1.2451,.4316s-.4482,.7002-.4482,1.2368c0,.4814,.1484,.8677,.4443,1.1577,.2959,.291,.7979,.5659,1.5068,.8262,.708,.2603,1.2646,.501,1.668,.7222,.4043,.2212,.7441,.4746,1.0215,.7593,.2764,.2852,.4893,.6133,.6387,.9834,.1494,.3711,.2246,.8057,.2246,1.3037,0,.9346-.2861,1.6934-.8594,2.2744-.5723,.5811-1.3711,.9238-2.3945,1.0293v1.6182h-1.3203v-1.6104c-1.0957-.1211-1.9375-.5146-2.5273-1.1787-.5889-.6641-.8838-1.5439-.8838-2.6396H2.0166c0,.6973,.1758,1.2373,.5273,1.6191s.8477,.5723,1.4902,.5723c.6309,0,1.1104-.1523,1.4404-.4561,.3291-.3047,.4932-.709,.4932-1.2119Z"/></g></svg>