<svg xmlns="http://www.w3.org/2000/svg" viewBox="0 0 16 16.0002"><path d="M4,2.7751V13.2254l-.3675-.1225-1.6325-.5442V3.4417l1.6325-.5442,.3675-.1225M6,.0002C4,.6669,2,1.3335,0,2.0002V14.0002l6,2V.0002h0Z"/><path d="M11,14.0002l-3,2V8.0002h3v6Z"/><path d="M15,14.0002h-2V3.0002h2V14.0002Z"/><path d="M16,4.0002H7l2-2h7v2Z"/><path d="M10,6.0002h-1V3.0002h1v3Z"/><path d="M15,2.0002h-2l.375-1L13.75,.0002h.5l.375,1,.375,1Z"/><path d="M10.0328,2.4929l-.1504-.2605L13.7492,0l.1504,.2605-3.8668,2.2325Z"/></svg>