<svg xmlns="http://www.w3.org/2000/svg" viewBox="0 0 15.2286 16"><path d="M4.6836,12.4844L11.8039,3.035c-1.067-1.8078-3.1381-3.035-5.5192-3.035C2.8135,0,0,2.6072,0,5.8206c0,3.3355,2.3015,6.4922,4.1198,8.4681l.5638-1.8044ZM6.2847,3.7751c1.1235,0,2.0356,.8949,2.0356,1.997s-.9122,1.9971-2.0356,1.9971-2.0357-.8949-2.0357-1.9971,.9122-1.997,2.0357-1.997Zm7.2965,.2249l1.6474,1.2415-7.0937,9.4137-1.9689,1.2945c-.0994,.0655-.2184,.0673-.3015,.0047-.0831-.0627-.1142-.1775-.0787-.2911l.7033-2.2516L13.5812,4Z"/></svg>