<svg xmlns="http://www.w3.org/2000/svg" viewBox="0 0 36 36"><path d="M30.5,3h-3V1.5c0-.8284,.6716-1.5,1.5-1.5s1.5,.6716,1.5,1.5v1.5ZM8.5,1.5c0-.8284-.6716-1.5-1.5-1.5s-1.5,.6716-1.5,1.5v1.5h3V1.5Zm27.5,31.5007c0,1.6564-1.3428,2.9993-2.9993,2.9993H2.9993c-1.6564,0-2.9993-1.3428-2.9993-2.9993V6c0-1.6569,1.3431-3,3-3h2.5v.5c0,.8284,.6716,1.5,1.5,1.5s1.5-.6716,1.5-1.5v-.5H27.5v.5c0,.8284,.6716,1.5,1.5,1.5s1.5-.6716,1.5-1.5v-.5h2.5c1.6569,0,3,1.3431,3,3v27.0007Zm-2.5-14.5015c0-.2753-.224-.4993-.4993-.4993H2.9993c-.2753,0-.4993,.2239-.4993,.4993v14.5015c0,.2753,.224,.4993,.4993,.4993h30.0015c.2753,0,.4993-.224,.4993-.4993v-14.5015Z"/></svg>