<?xml version="1.0" encoding="UTF-8"?><svg id="Layer_2" xmlns="http://www.w3.org/2000/svg" xmlns:xlink="http://www.w3.org/1999/xlink" viewBox="0 0 32 18"><defs><style>.cls-1{fill:url(#Gradient-4);}.cls-2{fill:url(#Gradient-3);}.cls-3{fill:url(#Gradient-2);}.cls-4{fill:url(#Gradient_2);}.cls-5{fill:url(#Gradient_3);}.cls-6{fill:url(#Gradient_4);}.cls-7{fill:url(#Cloud-4);}.cls-8{fill:url(#Cloud-3);}.cls-9{fill:url(#Cloud-2);}.cls-10{fill:url(#linear-gradient);}.cls-11{fill:url(#Cloud);}.cls-12{fill:url(#linear-gradient-8);}.cls-13{fill:url(#linear-gradient-9);}.cls-14{fill:url(#linear-gradient-3);}.cls-15{fill:url(#linear-gradient-4);}.cls-16{fill:url(#linear-gradient-2);}.cls-17{fill:url(#linear-gradient-6);}.cls-18{fill:url(#linear-gradient-7);}.cls-19{fill:url(#linear-gradient-5);}.cls-20{fill:url(#Gradient_3-4);}.cls-21{fill:url(#Gradient_3-3);}.cls-22{fill:url(#Gradient_3-2);}.cls-23{fill:url(#Gradient_2-2);}.cls-24{fill:url(#Gradient);}.cls-25{fill:url(#linear-gradient-13);}.cls-26{fill:url(#linear-gradient-12);}.cls-27{fill:url(#linear-gradient-10);}.cls-28{fill:url(#linear-gradient-11);}</style><linearGradient id="linear-gradient" x1="10.1185" y1="25.1592" x2="22.1861" y2="-7.9963" gradientUnits="userSpaceOnUse"><stop offset="0" stop-color="#b0d9ff"/><stop offset=".0496" stop-color="#b9dbfe"/><stop offset=".2594" stop-color="#dfe4fa"/><stop offset=".4284" stop-color="#f6e9f8"/><stop offset=".5345" stop-color="#ffecf8"/><stop offset=".6388" stop-color="#ffe6ee"/><stop offset=".81" stop-color="#ffd5d5"/><stop offset=".9065" stop-color="#ffcbc5"/></linearGradient><linearGradient id="linear-gradient-2" x1="19.5" y1="6.5" x2="19.5" y2="1.5" gradientUnits="userSpaceOnUse"><stop offset="0" stop-color="#f7f386"/><stop offset=".5793" stop-color="#fcf8a8"/><stop offset=".9952" stop-color="#fffcbc"/></linearGradient><linearGradient id="linear-gradient-3" x1="17.9832" y1="4.8168" x2="19.1168" y2="3.6832" gradientUnits="userSpaceOnUse"><stop offset="0" stop-color="#b8b363"/><stop offset=".2309" stop-color="#bcb766"/><stop offset=".473" stop-color="#c8c372"/><stop offset=".7202" stop-color="#ddd885"/><stop offset=".9694" stop-color="#faf49f"/><stop offset="1" stop-color="#fff9a3"/></linearGradient><linearGradient id="linear-gradient-4" x1="19.9399" y1="3.3101" x2="20.7601" y2="2.4899" xlink:href="#linear-gradient-3"/><linearGradient id="linear-gradient-5" x1="20.0641" y1="5.3859" x2="20.5359" y2="4.9141" xlink:href="#linear-gradient-3"/><linearGradient id="linear-gradient-6" x1="28.1161" y1="9.6339" x2="29.8839" y2="7.8661" gradientUnits="userSpaceOnUse"><stop offset="0" stop-color="#7f7aee"/><stop offset=".2276" stop-color="#837eee"/><stop offset=".4662" stop-color="#8f8aee"/><stop offset=".7099" stop-color="#a39fef"/><stop offset=".9555" stop-color="#bfbcef"/><stop offset="1" stop-color="#c5c3f0"/></linearGradient><linearGradient id="linear-gradient-7" x1="29.4057" y1="8.2128" x2="29.647" y2="7.9715" gradientTransform="translate(28.8796 -22.5162) rotate(73.4631)" gradientUnits="userSpaceOnUse"><stop offset="0" stop-color="#305eb2"/><stop offset=".2214" stop-color="#3261b6"/><stop offset=".4535" stop-color="#3a6ac2"/><stop offset=".6905" stop-color="#4679d7"/><stop offset=".9294" stop-color="#578ff4"/><stop offset="1" stop-color="#5e97ff"/></linearGradient><linearGradient id="linear-gradient-8" x1="28.2876" y1="8.6729" x2="28.6598" y2="8.3008" gradientTransform="matrix(1, 0, 0, 1, 0, 0)" xlink:href="#linear-gradient-7"/><linearGradient id="linear-gradient-9" x1="28.9223" y1="9.4795" x2="29.6496" y2="8.7522" gradientTransform="translate(7.0275 -11.9869) rotate(26.1835)" xlink:href="#linear-gradient-7"/><linearGradient id="linear-gradient-10" x1="26.2115" y1="4.4691" x2="26.2115" y2="2.2691" gradientUnits="userSpaceOnUse"><stop offset="0" stop-color="#fff"/><stop offset=".341" stop-color="#ffe4e1"/><stop offset=".6261" stop-color="#ffcbc5"/></linearGradient><linearGradient id="linear-gradient-11" x1="16.0317" y1="6.5303" x2="16.3887" y2="4.5057" gradientUnits="userSpaceOnUse"><stop offset=".0436" stop-color="#fff"/><stop offset=".426" stop-color="#ffd9d5"/><stop offset=".6261" stop-color="#ffcbc5"/></linearGradient><linearGradient id="Cloud" x1="22.9376" y1="5.9323" x2="23.6034" y2="2.1563" gradientUnits="userSpaceOnUse"><stop offset=".1681" stop-color="#fff"/><stop offset=".465" stop-color="#ffdeda"/><stop offset=".6261" stop-color="#ffcbc5"/></linearGradient><linearGradient id="Cloud-2" x1="10.3156" y1="5.4199" x2="10.9814" y2="1.6438" xlink:href="#Cloud"/><linearGradient id="Cloud-3" x1="19.3105" y1="6.9441" x2="19.9763" y2="3.1681" gradientTransform="translate(.3288 4.8935) rotate(-1.4952) scale(.9986 .6113) skewX(-2.4096)" xlink:href="#Cloud"/><linearGradient id="Cloud-4" x1="23.016" y1="-5.6248" x2="23.6818" y2="-9.4008" gradientTransform="translate(-11.158 8.422) rotate(-.2676) scale(1.5701 .3301) skewX(-3.6752)" xlink:href="#Cloud"/><linearGradient id="linear-gradient-12" x1="6.3183" y1="2.662" x2="7.7216" y2="2.1513" gradientUnits="userSpaceOnUse"><stop offset=".0761" stop-color="#305eb2"/><stop offset=".2255" stop-color="#3261b6"/><stop offset=".382" stop-color="#3a6ac2"/><stop offset=".5419" stop-color="#4679d7"/><stop offset=".7031" stop-color="#578ff4"/><stop offset=".7507" stop-color="#5e97ff"/></linearGradient><linearGradient id="Gradient_4" x1="6.025" y1="6.925" x2="9.175" y2="3.775" gradientUnits="userSpaceOnUse"><stop offset="0" stop-color="#305eb2"/><stop offset=".2214" stop-color="#3261b6"/><stop offset=".4535" stop-color="#3a6ac2"/><stop offset=".6905" stop-color="#4679d7"/><stop offset=".9294" stop-color="#578ff4"/><stop offset="1" stop-color="#5e97ff"/></linearGradient><linearGradient id="Gradient_3" x1="2.25" y1="13.55" x2="9.15" y2="6.65" gradientUnits="userSpaceOnUse"><stop offset="0" stop-color="#7f7aee"/><stop offset=".2276" stop-color="#837eee"/><stop offset=".4662" stop-color="#8f8aee"/><stop offset=".7099" stop-color="#a39fef"/><stop offset=".9555" stop-color="#bfbcef"/><stop offset="1" stop-color="#c5c3f0"/></linearGradient><linearGradient id="linear-gradient-13" x1="10.925" y1="12.925" x2="14.625" y2="9.225" xlink:href="#linear-gradient-6"/><linearGradient id="Gradient" x1="10.5" y1="17.5" x2="16.2" y2="11.8" gradientUnits="userSpaceOnUse"><stop offset="0" stop-color="#f86e80"/><stop offset=".2214" stop-color="#f77283"/><stop offset=".4535" stop-color="#f77e8d"/><stop offset=".6905" stop-color="#f6939d"/><stop offset=".9294" stop-color="#f4b0b4"/><stop offset="1" stop-color="#f4bbbc"/></linearGradient><linearGradient id="Gradient-2" x1=".925" y1="17.925" x2="5.325" y2="13.525" xlink:href="#Gradient"/><linearGradient id="Gradient_2" x1="3.1758" y1="17.1758" x2="12.8258" y2="7.5258" gradientUnits="userSpaceOnUse"><stop offset="0" stop-color="#ce8bb2"/><stop offset=".2589" stop-color="#d18fb5"/><stop offset=".5302" stop-color="#dc9bc1"/><stop offset=".8062" stop-color="#eeb0d5"/><stop offset="1" stop-color="#ffc4e7"/></linearGradient><linearGradient id="Gradient_3-2" x1="20.275" y1="17.585" x2="23.03" y2="14.83" xlink:href="#Gradient_3"/><linearGradient id="Gradient-3" x1="25.8318" y1="15.5612" x2="28.2781" y2="13.1149" xlink:href="#Gradient"/><linearGradient id="Gradient-4" x1="24.364" y1="15.8344" x2="26.1956" y2="14.0028" xlink:href="#Gradient"/><linearGradient id="Gradient_3-3" x1="30.0451" y1="16.9745" x2="31.1549" y2="15.8647" xlink:href="#Gradient_3"/><linearGradient id="Gradient_3-4" x1="28.7373" y1="16.4001" x2="30.0042" y2="15.1332" xlink:href="#Gradient_3"/><linearGradient id="Gradient_2-2" x1="7.875" y1="25.875" x2="23.875" y2="9.875" xlink:href="#Gradient_2"/></defs><g id="Layer_5"><rect class="cls-10" width="32" height="18"/></g><g id="Sun"><circle class="cls-16" cx="19.5" cy="4" r="2.5"/><ellipse class="cls-14" cx="18.55" cy="4.25" rx=".85" ry=".75"/><ellipse class="cls-15" cx="20.35" cy="2.9" rx=".65" ry=".5"/><ellipse class="cls-19" cx="20.3" cy="5.15" rx=".4" ry=".25"/></g><g id="Moon"><circle class="cls-17" cx="29" cy="8.75" r="1.25"/><ellipse class="cls-18" cx="29.5263" cy="8.0921" rx=".1316" ry=".2632" transform="translate(13.3648 34.0938) rotate(-73.4631)"/><circle class="cls-12" cx="28.4737" cy="8.4868" r=".2632"/><ellipse class="cls-13" cx="29.2859" cy="9.1159" rx=".5263" ry=".3947" transform="translate(-1.0172 13.8578) rotate(-26.1835)"/></g><g id="Layer_6"><path class="cls-27" d="m30.5309,3.2542c-.1689-.0261-.3303.0033-.4734.0592-.1054-.0943-.2406-.1695-.4095-.1956-.2019-.0312-.3958.0092-.5528.0935-.1-.3278-.574-.5816-1.1717-.5816-.0842,0-.1662.005-.2455.0144-.1909-.222-.5663-.375-1.0039-.375-.3956,0-.7436.1239-.9478.3116-.1319-.0499-.2799-.0863-.4485-.0863-.4169,0-.7474.1804-.8168.4133-.0225-.0014-.0421-.0076-.0652-.0076-.2213,0-.4064.0702-.5174.1704-.0883-.0481-.1848-.0888-.298-.1063-.3237-.05-.634.0567-.8253.2468-.067-.0423-.1429-.0766-.2332-.0905-.2509-.0388-.4869.0672-.593.2399-.2971-.016-.5714.1354-.6304.3706-.0641.255.1476.5025.4727.5528.2027.0313.394-.0279.5307-.1338.064.1367.206.2476.4014.2778.2095.0324.4103-.0367.5341-.1598.0052.0009.0091.0039.0144.0047.1641.0253.3199.0009.465-.0433.0971.0824.218.1489.3691.1722.241.0372.4687-.0348.6283-.1632.1232.0019.2388-.0173.3447-.0587.1054.0943.2405.1695.4095.1956.2897.0448.5682-.0518.7361-.224.0851.0806.1984.144.3395.1658.2026.0313.394-.0278.5307-.1337.064.1367.206.2476.4014.2778.2095.0324.4103-.0367.5341-.1598.0052.0009.0091.0039.0144.0047.164.0254.3199.0009.465-.0433.0971.0824.218.1489.3691.1722.241.0373.4687-.0347.6282-.1631.1232.0019.2388-.0173.3448-.0587.1053.0943.2405.1695.4094.1956.4064.0628.8008-.1447.8809-.4635.08-.3189-.1845-.6282-.5909-.691Z"/><path class="cls-28" d="m17.8087,4.7596c-.1391-.0252-.2732.0183-.3926.0941-.0853-.1129-.1955-.2007-.3347-.2259-.234-.0424-.4605.0854-.6036.2993-.0936-.2018-.2536-.3548-.4645-.393-.2667-.0483-.5253.098-.6872.3429-.0546-.0498-.1167-.0892-.191-.1027-.2067-.0374-.4039.1047-.495.3243-.2453-.0071-.4751.1932-.5286.4886-.058.3203.112.6192.3799.6678.1669.0302.3263-.0517.4414-.1894.0502.1673.1654.2993.3263.3285.1726.0313.34-.0634.4448-.222.0043.0009.0074.0045.0118.0053.1351.0245.2645-.0127.3853-.074.0787.0984.1773.1759.3017.1985.1985.036.3882-.0635.5227-.2303.1018-.0029.1978-.0319.2862-.0879.0853.1129.1955.2007.3346.2259.3348.0606.6649-.2148.7374-.6151s-.14-.7741-.4748-.8347Z"/><path class="cls-11" d="m25.7243,4.0938c-.0165.0011-.0301.0077-.0461.0101-.0639-.2104-.3111-.3601-.6089-.3401-.1205.0081-.2239.0485-.3151.1007-.0469-.0484-.1169-.0768-.1794-.1122-.0025-.0012-.0043-.003-.0068-.0043-.1462-.081-.3148-.1372-.51-.1241-.0995.0067-.1804.0472-.2664.0791-.0945-.0605-.1999-.1096-.3255-.1238-.2692-.0303-.5101.0718-.6467.2399-.1292-.1559-.3278-.2733-.5704-.3006-.3067-.0346-.5817.0823-.7359.2747-.0675-.0381-.1422-.0681-.2277-.0777-.2378-.0268-.4439.0861-.5212.2581-.2778-.0027-.514.1558-.5399.3862-.0282.2499.1987.4807.5069.5154.192.0216.3625-.0439.4764-.1525.0762.1296.2217.2311.4068.2519.1985.0223.3765-.0533.4763-.1779.005.0006.0089.0034.014.004.1004.0113.1931-.0016.2824-.0224.0679.3188.4399.549.887.519.1721-.0116.3289-.0605.4594-.1336.0295.0217.0498.0506.0858.0665.2048.0905.4662.0596.6944-.0609.1512.0696.3317.1056.5245.0926.3939-.0265.7111-.2452.8113-.524.204-.0432.3541-.1819.3432-.3432-.0123-.1828-.222-.3175-.4684-.3009Z"/><path class="cls-9" d="m13.1023,3.5814c-.0165.0011-.0301.0077-.0461.0101-.0639-.2104-.3111-.3601-.6089-.3401-.1205.0081-.2239.0485-.3151.1007-.0469-.0484-.1169-.0768-.1794-.1122-.0025-.0012-.0043-.003-.0068-.0043-.1462-.081-.3148-.1372-.51-.1241-.0995.0067-.1804.0472-.2664.0791-.0945-.0605-.1999-.1096-.3255-.1238-.2692-.0303-.5101.0718-.6467.2399-.1292-.1559-.3278-.2733-.5704-.3006-.3067-.0346-.5817.0823-.7359.2747-.0675-.0381-.1422-.0681-.2277-.0777-.2378-.0268-.4439.0861-.5212.2581-.2778-.0027-.514.1558-.5399.3862-.0282.2499.1987.4807.5069.5154.192.0216.3625-.0439.4764-.1525.0762.1296.2217.2311.4068.2519.1985.0223.3765-.0533.4763-.1779.005.0006.0089.0034.014.004.1004.0113.1931-.0016.2824-.0224.0679.3188.4399.549.887.519.1721-.0116.3289-.0605.4594-.1336.0295.0217.0498.0506.0858.0665.2048.0905.4662.0596.6944-.0609.1512.0696.3317.1056.5245.0926.3939-.0265.7111-.2452.8113-.524.204-.0432.3541-.1819.3432-.3432-.0123-.1828-.222-.3175-.4684-.3009Z"/><path class="cls-8" d="m22.2543,7.4434c-.0165.0011-.0302.0055-.0462.0074-.0583-.1272-.3012-.2123-.599-.1923-.1205.0081-.2248.0355-.3171.0699-.0455-.0284-.1147-.0439-.1761-.064-.0025-.0007-.0042-.0017-.0067-.0024-.1438-.0458-.3107-.0758-.5059-.0627-.0995.0067-.1813.0336-.2679.0553-.0927-.0345-.1967-.0619-.3217-.0673-.2679-.0115-.511.0572-.6518.1637-.1249-.0921-.3201-.1587-.5616-.1691-.3053-.0132-.5829.0655-.7418.1874-.0664-.0216-.1401-.038-.2253-.0416-.2367-.0102-.4454.0643-.527.1716-.2773.0056-.5171.1088-.549.2505-.0346.1538.1859.2891.4926.3023.1911.0082.363-.0363.4795-.1057.0727.0774.2153.1357.3995.1436.1976.0085.3773-.0425.4801-.1213.005.0003.0088.0018.0138.0021.0999.0043.1928-.006.2825-.0211.0594.1934.4248.3246.8719.2946.1721-.0116.3299-.0456.4621-.0938.0289.0125.0484.0297.0839.0385.2021.0501.4638.0244.6947-.0554.1492.0387.3284.056.5211.043.3939-.0265.7163-.1686.8235-.3419.2048-.0318.3582-.1206.3516-.2191-.0075-.1116-.2133-.1886-.4598-.172Z"/><path class="cls-7" d="m30.0944,5.766c-.026.0005-.048.0028-.0733.0037-.0794-.0691-.4527-.1167-.9222-.1079-.1899.0036-.3564.0177-.5047.0356-.0688-.0157-.1759-.0245-.2705-.0358-.0038-.0004-.0065-.001-.0103-.0014-.2215-.0257-.4806-.043-.7884-.0373-.1569.0029-.2879.0169-.426.0281-.1423-.0193-.3029-.0348-.4988-.0385-.4196-.008-.808.0275-1.0391.084-.1874-.0506-.4875-.0879-.8658-.0952-.4781-.0092-.9215.0315-1.1827.0962-.1022-.0121-.2164-.0215-.3498-.024-.3707-.0071-.7055.0317-.844.0891-.436.0011-.8224.0553-.886.1316-.069.0828.2643.1574.7446.1666.2993.0057.5735-.0172.7631-.0539.1068.0423.3251.0748.6136.0803.3095.0059.5965-.0204.7655-.0623.0078.0002.0137.0011.0215.0012.1565.003.3034-.0019.4456-.0095.0749.1049.6361.1782,1.3411.165.2713-.0051.5224-.0224.7346-.0475.0441.007.0731.0164.1281.0214.3126.0284.726.0163,1.0962-.0252.2306.0219.5104.0325.8143.0268.621-.0116,1.1408-.0863,1.3258-.1791.3246-.0158.574-.0627.573-.116-.0011-.0603-.317-.1033-.7056-.096Z"/></g><g id="City"><path class="cls-26" d="m7.1886,2.1969c-.0115-.01-.0154-.0153-.0225-.0239-.0032-.004-.0118-.0146-.0212-.0237-.0044-.0042-.0109-.0099-.0197-.016.0452-.0739.1235-.0932.1653-.0651.0337.0227.0562.085.0272.1202-.0249.0302-.0991.0345-.1292.0086h0Zm-.2326.4034c.0081-.0212-.0516-.0469-.0473-.0859.0023-.0206.0228-.04.014-.0509-.0011-.0013-.0022-.0021-.0033-.0028-.013-.0086-.0277.004-.0338-.0001-.012-.0081.0305-.0712.0141-.0851-.0182-.0155-.076.0114-.077.0317-.0007.0141.0261-.0001.0259.0163-.0003.017-.0271.0378-.0262.052.0009.0151.0283.0255.0375.0433.0097.0188-.0159.0359-.0079.0504.0047.0085.0365.0434.0652.0439.0028,0,.0332.002.0387-.0127h0Zm.2828.189c.0493-.0078.094-.0336.1261-.0723l.0055-.0067c.0068-.0082.0009-.0209-.0097-.0205-.0112.0004-.0205-.0019-.0274-.0074-.0449-.0357.0194-.2025.093-.3107.0847-.1245.2285-.2403.2813-.2067.0124.0079.0244.027.0222.0767-.0005.0119.0142.0177.0217.0086h0c.0332-.04.0503-.0912.0483-.1434-.0072-.1902-.0893-.3517-.1193-.407-.0109.0157-.0288.0395-.0542.0654-.0386.0393-.085.0732-.2264.1405-.0438.0208-.1026.0476-.1737.0767.026.0113.0941.0415.1291.1097.0129.0249.0331.0794.0104.1202-.0248.0445-.1003.0506-.1458.0432-.0923-.015-.1225-.1597-.1563-.077,0,0-.0392.0944-.0438.1856-.0057.114.0077.1477-.0075.2165-.0158.0716-.0515.1216-.0784.1527l-.0559.0674c.1367.0097.2596.0043.3606-.0117h0Z"/><path class="cls-6" d="m8.5,4.7001v-.701c0-.2756-.2235-.4991-.4992-.4991h-.1088l-.192-1.2001h-.2l-.192,1.2002h-.1089c-.2756,0-.499.2235-.499.4991v.701h-.6v2.2996h3v-2.3h-.6Z"/><path class="cls-5" d="m8.7,14c0-2.3346,0-5.4654,0-7.8-.3333-.3333-.6667-.6667-1-1h-4c-.3333.3333-.6667.6667-1,1v7.8h6Z"/><polygon class="cls-25" points="11 8.7 15 9.6 15 13 11 13 11 8.7"/><polygon class="cls-24" points="17 18 17 12.6 11 10 11 18 17 18"/><path class="cls-3" d="m5,18v-4.8H1.5c-.1652.1651-.3349.3348-.5.5v4.3h4Z"/><rect class="cls-4" x="4" y="6.7015" width="8" height="11.2985"/></g><g id="rural"><path class="cls-22" d="m23.7,15.9l-.9-.72v-.58h-.4v.26l-.7-.56-2,1.6h.3v1.41c1.0701-.2802,2.3528-.5453,3.4-.59v-.82h.3Z"/><path class="cls-2" d="m27.0832,11.92c.0184.0184.021.0933.021.6306,0,.4112.0039.6096.0131.6096.0079,0,.0263.0197.0407.0447.0236.0407.0381.0473.1577.0815l.1314.0368.3771.2996c.3258.2601.3771.3061.3771.3363,0,.0236-.0079.0368-.0236.0394-.0131.0026-.2365-.1314-.5282-.3179-.2785-.1774-.5111-.3232-.519-.3232-.0171,0-.0197-.1051.0276,1.6909.0499,1.8367.0604,1.6462-.0933,1.6462-.0657,0-.0827.0069-.1024-.0088l-.0434-.0372.0473-1.6278c.0263-.8947.046-1.637.0434-1.6488s-.0289.0105-.0723.0644c-.0368.0473-.0815.0985-.0985.1143-.0276.0263-.8553.4638-.8776.4638-.0053,0-.0197-.0118-.0328-.0263-.0184-.0197-.0197-.0302-.0079-.0447.0079-.0105.2404-.1655.515-.3442.4139-.272.4993-.3337.5058-.3626.0053-.0197.0184-.0447.0315-.0565.0223-.0197.021-.0263-.0145-.138-.0223-.0683-.0381-.1471-.0381-.1879,0-.0368.0184-.2601.0407-.4953.0328-.3416.0447-.4309.0617-.4441.0276-.021.0355-.0197.0604.0053Z"/><path class="cls-1" d="m25.3106,13.1208c.0079.0171.0131.1905.0131.473,0,.2969.0039.448.0131.448.0079,0,.0197.0145.0276.0315.0118.0263.0342.0368.109.0552.0512.0118.1051.0276.1196.0355.0145.0066.1577.1104.3193.2299.2378.1761.2917.222.289.2444-.0026.0145-.0131.0289-.0236.0315-.0105.0013-.2036-.109-.427-.2457-.2247-.138-.4112-.2457-.4165-.2404s.0066.5571.0276,1.2245c.0328,1.0589.0355,1.2192.0197,1.2442-.0158.0263-.0302.0302-.0959.0302-.1314,0-.1235.1261-.0801-1.2678.021-.6714.0355-1.2232.0342-1.2258-.0026-.0013-.0328.0289-.0657.0683-.0657.0762-.0644.0749-.5899.3271-.1787.0854-.1958.0907-.2155.0709-.0158-.0158-.0184-.025-.0066-.0394.0079-.0092.1971-.1288.4191-.2641.4756-.289.4625-.2759.4139-.423l-.0302-.0946.0394-.3574c.0223-.1971.0447-.3626.0486-.3692.0118-.0197.0434-.0131.0578.0131Z"/><path class="cls-21" d="m31.1,16.1103c0-.3452-.2238-.625-.5-.625s-.5.2798-.5.625c0,.3322.209.5977.4706.6176v.7721h.0588v-.7722c.2617-.02.4706-.2855.4706-.6176Z"/><path class="cls-20" d="m29.9416,15.4135c0-.3941-.2556-.7135-.5708-.7135s-.5708.3194-.5708.7135c0,.3792.2385.6821.5372.705v.8815h.0671v-.8815c.2987-.0229.5372-.3259.5372-.705Z"/><path class="cls-23" d="m31.3,17.6c-.5447-.2896-.9852-.5239-1.6-.7-.228-.0653-.6985-.1852-1.3-.2-.3334-.0082-.5038-.0107-.6865.0707-.3187.1421-.4884.4496-.5876.7293h-1.8348c.4783-.3204,1.204-.6835,2.2248-.7878-1.3045.0366-2.3405.4344-3.0303.7878h-.8979c.6351-.3204,1.5533-.6835,2.574-.7878-1.3045.0366-2.5549.4344-3.4053.7878h-.8543c.8182-.3204,1.9608-.6835,2.9815-.7878-1.3045.0366-2.8051.4344-3.8428.7878h-.8572c.9751-.3204,2.3099-.6835,3.3307-.7878-1.3044.0366-3.0197.4344-4.2179.7878H0v.5h32c-.1635-.1002-.4032-.2422-.7-.4Z"/></g></svg>