<svg xmlns="http://www.w3.org/2000/svg" viewBox="0 0 16 16"><path d="M13.3943,3.3684h-.9733v-.7627c0-1.4391-1.1665-2.6057-2.6057-2.6057H2.6057C1.1666,0,0,1.1666,0,2.6057v7.4202c0,1.4391,1.1666,2.6057,2.6057,2.6057h.9733v.7627c0,1.4391,1.1666,2.6057,2.6057,2.6057h7.2097c1.4391,0,2.6057-1.1666,2.6057-2.6057V5.9741c0-1.4391-1.1666-2.6057-2.6057-2.6057Zm1.132,10.0259c0,.6242-.5078,1.132-1.132,1.132H6.1847c-.6242,0-1.132-.5078-1.132-1.132V5.9741c0-.6242,.5078-1.132,1.132-1.132h7.2097c.6242,0,1.132,.5078,1.132,1.132v7.4202Z"/></svg>