<svg xmlns="http://www.w3.org/2000/svg" xmlns:xlink="http://www.w3.org/1999/xlink" viewBox="0, 0, 400,400"><path id="path0" d="M175.000 1.185 C 11.855 21.387,-58.386 221.341,56.207 339.352 C 162.324 448.634,347.623 403.882,391.747 258.315 C 433.723 119.831,318.710 -16.610,175.000 1.185 M318.543 81.836 C 318.379 82.158,301.413 118.651,280.842 162.931 L 243.439 243.439 162.931 280.842 C 118.651 301.413,82.104 318.412,81.715 318.618 C 81.327 318.823,81.177 318.673,81.382 318.285 C 81.588 317.896,98.587 281.349,119.159 237.068 L 156.562 156.558 237.461 118.912 C 322.940 79.134,319.003 80.935,318.543 81.836 M195.581 178.149 C 169.526 183.371,173.406 222.122,199.982 222.101 C 212.742 222.090,222.111 212.736,222.101 200.018 C 222.089 185.767,209.475 175.365,195.581 178.149 " stroke="none" fill="#000000"></path></svg>