<svg xmlns="http://www.w3.org/2000/svg" viewBox="0 0 16 14.85"><path d="M7.9487,14.85h-.8229c-.1105,0-.2-.0895-.2-.2h0c0-.1105,.0895-.2,.2-.2h.8229c.1105,0,.2,.0895,.2,.2h0c0,.1105-.0895,.2-.2,.2Zm.5057-.9h0c0-.1657-.1343-.3-.3-.3h-1.2343c-.1657,0-.3,.1343-.3,.3h0c0,.1657,.1343,.3,.3,.3h1.2343c.1657,0,.3-.1343,.3-.3Zm7.5456-5.95h0c0-.1657-.158-.3-.3529-.3h-2.6285c-.1949,0-.3529,.1343-.3529,.3h0c0,.1657,.158,.3,.3529,.3h2.6285c.1949,0,.3529-.1343,.3529-.3Zm-1.8211-6.1789h0c-.1172-.1172-.3239-.1004-.4617,.0374l-1.8586,1.8586c-.1378,.1378-.1546,.3445-.0374,.4617h0c.1172,.1172,.3239,.1004,.4617-.0374l1.8586-1.8586c.1378-.1378,.1546-.3445,.0374-.4617ZM3.3343,8h0c0-.1657-.158-.3-.3529-.3H.3529c-.1949,0-.3529,.1343-.3529,.3H0c0,.1657,.158,.3,.3529,.3H2.9814c.1949,0,.3529-.1343,.3529-.3Zm.8446-3.8211h0c.1172-.1172,.1004-.3239-.0374-.4617l-1.8586-1.8586c-.1378-.1378-.3445-.1546-.4617-.0374h0c-.1172,.1172-.1004,.3239,.0374,.4617l1.8586,1.8586c.1378,.1378,.3445,.1546,.4617,.0374ZM8,0h0c-.1657,0-.3,.158-.3,.3529V2.9814c0,.1949,.1343,.3529,.3,.3529h0c.1657,0,.3-.158,.3-.3529V.3529c0-.1949-.1343-.3529-.3-.3529Zm2.6416,5.1076c-.6861-.638-1.5645-.9576-2.6013-.9576-1.8997,0-3.2081,1.0057-3.7344,2.3941-.0472,.1272-.0942,.2814-.1279,.4595-.0319,.1679-.0451,.3201-.0487,.45h1.8203c.3989-1.0057,1.1967-1.5164,2.0751-1.5164,.9407,0,1.6112,.6224,1.6112,1.4683,0,.5899-.4145,1.2448-1.2448,1.9789l-.4314,.3677c-.9563,.829-1.3397,1.5787-1.3397,2.6806v.7172h1.8347v-.382c0-.8147,.3353-1.2617,1.2123-2.0114,.7186-.6224,1.2292-1.1487,1.5488-1.5956,.3184-.447,.4782-.9888,.4782-1.6437,0-.9732-.3508-1.7879-1.0525-2.4097Z"/></svg>