<?xml version="1.0" encoding="UTF-8"?><svg id="b" xmlns="http://www.w3.org/2000/svg" viewBox="0 0 14.9026 16"><g id="c"><path id="d" d="M13.3808,8.8724c.0417-.2856,.0705-.5753,.0705-.8724s-.0288-.5869-.0705-.8724l1.1972-1.1237c.2948-.2767,.4114-.7098,.255-1.0827-.2677-.6384-.6168-1.2337-1.0329-1.7753-.2456-.3196-.6766-.4345-1.0624-.3179l-1.5634,.4724c-.4558-.3617-.965-.6573-1.5146-.8752l-.3451-1.4728c-.1231-.5253-.4507-.8364-.8612-.8887-.3026-.0385-.6382-.0635-1.0021-.0635-.2836,0-.6132,.0152-.9779,.0605-.4169,.0518-.7613,.3623-.8572,.7714l-.3733,1.5932c-.5497,.2178-1.0588,.5134-1.5147,.8751l-1.4437-.4362c-.5057-.1528-.9365-.0378-1.1821,.2818-.4161,.5416-.7652,1.1369-1.0329,1.7753-.1564,.3729-.0398,.806,.255,1.0827l1.1972,1.1237c-.0417,.2856-.0705,.5753-.0705,.8724s.0288,.5869,.0705,.8724l-1.1972,1.1237c-.2948,.2767-.4114,.7098-.255,1.0827,.2677,.6384,.6168,1.2337,1.0329,1.7753,.2456,.3196,.6766,.4346,1.0624,.318l1.5633-.4724c.4559,.3617,.9651,.6573,1.5147,.8752l.373,1.5917c.0972,.415,.4452,.7213,.8682,.7736,.317,.0391,.6396,.0598,.9672,.0598s.6502-.0207,.9672-.0598c.423-.0522,.7711-.3587,.8683-.7737l.3729-1.5916c.5497-.2179,1.0588-.5134,1.5147-.8751l1.4437,.4362c.5057,.1528,.9365,.0378,1.1821-.2819,.4161-.5416,.7652-1.1369,1.0329-1.7753,.1564-.3729,.0398-.806-.255-1.0827l-1.1972-1.1237Zm-5.9295,1.6276c-1.3807,0-2.5-1.1193-2.5-2.5s1.1193-2.5,2.5-2.5,2.5,1.1193,2.5,2.5-1.1193,2.5-2.5,2.5Z"/></g></svg>