<svg xmlns="http://www.w3.org/2000/svg" viewBox="0 0 16.0014 16"><path d="m15.9991,8.8322c-.0044.0283-.0175.0614-.0351.0859-.0105.0147-.0236.0284-.0396.0408-.0007.0005-.0005.0015-.0012.002l-6.4638,4.8708c-.0929.07-.1115.202-.0414.2949l1.1484,1.524c.1044.1386.0058.3369-.1677.3373l-5.297.012c-.072.0002-.1218-.0375-.1585-.0849-.01-.0129-.0234-.033-.0333-.0602-.0057-.0156-.0194-.0545-.0116-.1048.0038-.0246.0179-.0626.0363-.0878.0103-.0141.0231-.0274.0386-.0394.0005-.0004.0004-.0011.0009-.0015l.0003-.0003,6.4635-4.8706c.0929-.07.1114-.202.0414-.2949l-1.1484-1.524c-.1044-.1386-.0058-.3369.1677-.3373l5.2971-.0121c.0718-.0002.1215.0372.1582.0844.0102.013.0237.0333.0336.0606.0057.0157.0194.0545.0116.1048Zm-10.2901-1.8094c1.5966,0,2.8909-1.2943,2.8909-2.891v-.2409c0-1.5966-1.2943-2.8909-2.8909-2.8909s-2.8909,1.2943-2.8909,2.8909v.2409c0,1.5967,1.2943,2.891,2.8909,2.891Zm3.0961,3.2076l-.0718-.0957c-.3826-.5082-.5217-1.1375-.4061-1.7402-.1747-.0145-.3829-.0265-.6909-.0377-.4896-.0178-1.143-.0341-1.9195-.0325h0c-.0029-.0001-.005,0-.0079,0s-.0051,0-.008,0h0c-.7765-.0014-1.4299.0148-1.9196.0327-.7817.0285-1.0147.0558-1.3047.1413-.7159.2112-1.1824.6012-1.3483.7502-.1752.1573-.6387.5834-.9025,1.2939-.1479.3983-.1721.7216-.2067,1.1852-.0394.5295-.0121.9724.0218,1.283.0258.115.1003.3734.3262.6088.259.27.5609.3467.6741.3697.9229.0021,1.8457.0043,2.7685.0064l4.9951-3.765Zm7.1851-4.8667c-.0173-.2318-.0294-.3935-.1033-.5926-.1319-.3552-.3637-.5683-.4512-.6469-.083-.0745-.3162-.2695-.6741-.3751-.145-.0428-.2615-.0564-.6524-.0707-.2448-.0089-.5715-.017-.9598-.0162h0c-.0014,0-.0025,0-.0039,0-.0014,0-.0026,0-.004,0h0c-.3882-.0007-.715.0074-.9598.0163-.3909.0143-.5073.0279-.6524.0707-.3579.1056-.5912.3006-.6741.3751-.0876.0787-.3194.2917-.4512.6469-.0739.1991-.086.3608-.1033.5926-.0197.2648-.0061.4862.0109.6415.0129.0575.0502.1867.1631.3044.1295.135.2805.1734.3371.1848.7693.0018,1.5387.0036,2.308.0053h0c.0086,0,.0171,0,.0257,0,.0086,0,.0171,0,.0257,0h0c.7693-.0019,1.5387-.0036,2.308-.0055.0566-.0115.2075-.0498.3371-.1848.113-.1177.1502-.2469.1631-.3044.017-.1554.0306-.3767.0109-.6415Zm-1.3993-3.9183v.1205c0,.7983-.6472,1.4455-1.4455,1.4455h0c-.7983,0-1.4455-.6472-1.4455-1.4455v-.1205c0-.7983.6472-1.4455,1.4455-1.4455h0c.7983,0,1.4455.6472,1.4455,1.4455Z"/></svg>