<svg xmlns="http://www.w3.org/2000/svg" viewBox="0 0 13.5 15.325"><path d="M12.9,2.6h-3.15V1.5604c0-.8618-.6986-1.5604-1.5604-1.5604h-2.8793c-.8618,0-1.5604,.6986-1.5604,1.5604v1.0396H.6c-.3314,0-.6,.2687-.6,.6s.2686,.6,.6,.6h.7208l.5821,9.8762c.0546,.9259,.8214,1.6489,1.7489,1.6489h6.1965c.9276,0,1.6943-.723,1.7489-1.6489l.5821-9.8762h.7208c.3314,0,.6-.2686,.6-.6s-.2686-.6-.6-.6ZM4.8744,1.5604c0-.2404,.1956-.436,.436-.436h2.8793c.2404,0,.436,.1956,.436,.436v1.0396h-3.7512V1.5604Zm-.4296,11.7604l-.093,.0032c-.2779,.0097-.511-.2077-.5207-.4856l-.2615-7.4885c-.0097-.2779,.2077-.511,.4856-.5207l.093-.0032c.2779-.0097,.511,.2076,.5207,.4855l.2615,7.4885c.0097,.2779-.2077,.511-.4856,.5208Zm2.8552-.4993c0,.2781-.2254,.5035-.5034,.5035h-.0931c-.278,0-.5034-.2254-.5034-.5035V5.3284c0-.278,.2254-.5034,.5034-.5034h.0931c.278,0,.5034,.2254,.5034,.5034v7.4931Zm2.3689,.0169c-.0097,.2779-.2428,.4953-.5207,.4856l-.093-.0032c-.2779-.0097-.4953-.2429-.4856-.5208l.2615-7.4885c.0097-.2779,.2428-.4952,.5207-.4855l.093,.0032c.2779,.0097,.4953,.2428,.4856,.5207l-.2615,7.4885Z"/></svg>