<svg xmlns="http://www.w3.org/2000/svg" viewBox="0 0 13.5 15.325"><rect x="6.3" y="4.925" width=".9" height="8.3" rx=".45" ry=".45"/><rect x="4.15" y="4.925" width=".9" height="8.3" rx=".45" ry=".45" transform="translate(-.3139 .1661) rotate(-2)"/><rect x="8.45" y="4.925" width=".9" height="8.3" rx=".45" ry=".45" transform="translate(17.4779 18.4551) rotate(-178)"/><path d="M12.9,2.6h-3.15V1.5604c0-.8618-.6986-1.5604-1.5604-1.5604h-2.8793c-.8618,0-1.5604,.6986-1.5604,1.5604v1.0396H.6c-.3314,0-.6,.2687-.6,.6s.2686,.6,.6,.6h.7208l.5821,9.8762c.0546,.9259,.8214,1.6489,1.7489,1.6489h6.1965c.9276,0,1.6943-.723,1.7489-1.6489l.5821-9.8762h.7208c.3314,0,.6-.2686,.6-.6s-.2686-.6-.6-.6ZM4.8744,1.5604c0-.2404,.1956-.436,.436-.436h2.8793c.2404,0,.436,.1956,.436,.436v1.0396h-3.7512V1.5604Zm5.5248,12.0452c-.0172,.2913-.2592,.5195-.551,.5195H3.6517c-.2918,0-.5338-.2282-.551-.5195L2.5228,3.8H10.9772l-.5779,9.8055Z"/></svg>