<svg xmlns="http://www.w3.org/2000/svg" viewBox="0 0 36 36"><path d="M24,11.5v.5c0,3.3137-2.6863,6-6,6h0c-3.3137,0-6-2.6863-6-6v-.5c0-3.3137,2.6863-6,6-6h0c3.3137,0,6,2.6863,6,6Zm12,6.4999h0c0,9.9412-8.0589,18.0001-18,18.0001S0,27.9411,0,18H0C0,8.0588,8.0589,0,18,0s18,8.0588,18,17.9999Zm-2.0571,0c0-8.791-7.1519-15.9429-15.9429-15.9429S2.0571,9.209,2.0571,17.9999c0,3.2397,.9771,6.2531,2.6438,8.7717,.8987-1.0248,2.209-2.2765,4.0162-3.3588,3.7684-2.2568,7.4761-2.4474,9.2829-2.4128,1.6603-.0388,4.9311,.1163,8.4269,1.9476,2.3188,1.2147,3.905,2.7311,4.8723,3.8237,1.6667-2.5186,2.6436-5.5317,2.6436-8.7713Z"/></svg>