<svg xmlns="http://www.w3.org/2000/svg" viewBox="0 0 16 16"><defs><style>path{fill:#0070c9;}</style></defs><path d="M8,0C3.5817,0,0,3.5817,0,8s3.5817,8,8,8,8-3.5817,8-8S12.4183,0,8,0Zm.5524,12.4359c-.0809,.1335-.1882,.2408-.3207,.3198-.1325,.0799-.2792,.1194-.4412,.1194-.2418,0-.4492-.086-.6223-.2581-.174-.173-.261-.3804-.261-.6252,0-.2408,.087-.4482,.261-.6202,.173-.1721,.3804-.2581,.6223-.2581,.2388,0,.4453,.086,.6202,.2581,.175,.172,.2631,.3794,.2631,.6202,0,.1619-.0405,.3096-.1215,.4442Zm2.0156-5.5144c-.1032,.2631-.2499,.4979-.4401,.7042-.1892,.2054-.4169,.3885-.682,.5474-.2499,.1558-.4523,.3177-.6071,.4857-.1538,.1669-.2672,.3663-.338,.5959-.0698,.2297-.1083,.513-.1143,.852v.0839h-1.2628v-.0839c.006-.5474,.0607-.9835,.166-1.3073,.1042-.3237,.254-.5858,.4482-.7852,.1943-.2003,.428-.3835,.7012-.5484,.1771-.1113,.3359-.2368,.4775-.3744,.1407-.1386,.253-.2974,.3349-.4775,.083-.1791,.1235-.3774,.1235-.5959,0-.2621-.0617-.4887-.1852-.6799-.1234-.1913-.2874-.339-.4917-.4432-.2054-.1052-.4321-.1569-.683-.1569-.2267,0-.4422,.0466-.6486,.1406-.2064,.0952-.3763,.2408-.512,.4402-.1356,.1983-.2135,.4532-.2337,.7659h-1.3427c.0203-.5302,.1548-.9785,.4017-1.3447s.5747-.6435,.9824-.8327c.4078-.1882,.8591-.2823,1.3528-.2823,.5423,0,1.0159,.1012,1.4226,.3025,.4057,.2014,.7214,.4827,.947,.8429,.2247,.3612,.337,.7811,.337,1.2607,0,.3298-.0516,.6263-.1538,.8904Z"/></svg>